G04*
G04 #@! TF.GenerationSoftware,Altium Limited,Altium Designer,21.9.2 (33)*
G04*
G04 Layer_Color=32896*
%FSLAX25Y25*%
%MOIN*%
G70*
G04*
G04 #@! TF.SameCoordinates,BDAA0F83-93E9-4538-AAC0-020DCC9D6774*
G04*
G04*
G04 #@! TF.FilePolarity,Positive*
G04*
G01*
G75*
%ADD10C,0.01000*%
%ADD31C,0.00100*%
G36*
X297570Y168945D02*
X297565Y168790D01*
X297560Y168645D01*
X297555Y168515D01*
X297550Y168400D01*
Y168295D01*
X297545Y168205D01*
Y168125D01*
Y168060D01*
X297540Y168000D01*
Y167950D01*
Y167915D01*
Y167885D01*
Y167865D01*
Y167855D01*
Y167850D01*
X299325D01*
X299010Y167540D01*
X298865Y167575D01*
X298715Y167600D01*
X298575Y167620D01*
X298445Y167630D01*
X298385Y167635D01*
X298335Y167640D01*
X298285D01*
X298245Y167645D01*
X297540D01*
Y166735D01*
X298275D01*
X298765Y166980D01*
X298755Y166690D01*
X298745Y166395D01*
X298740Y166255D01*
Y166115D01*
X298735Y165985D01*
Y165860D01*
Y165745D01*
X298730Y165640D01*
Y165550D01*
Y165470D01*
Y165405D01*
Y165360D01*
Y165330D01*
Y165325D01*
Y165320D01*
Y165155D01*
Y165000D01*
X298735Y164850D01*
Y164705D01*
X298740Y164575D01*
Y164450D01*
X298745Y164330D01*
Y164225D01*
X298750Y164130D01*
X298755Y164045D01*
Y163975D01*
X298760Y163915D01*
Y163865D01*
X298765Y163830D01*
Y163805D01*
Y163800D01*
X298275Y164045D01*
Y164185D01*
X297540D01*
Y163200D01*
X299500D01*
X299185Y162890D01*
X299040Y162925D01*
X298890Y162950D01*
X298750Y162970D01*
X298620Y162980D01*
X298560Y162985D01*
X298510Y162990D01*
X298460D01*
X298420Y162995D01*
X297540D01*
Y162825D01*
Y162655D01*
X297545Y162300D01*
X297550Y162120D01*
Y161950D01*
X297555Y161780D01*
Y161620D01*
X297560Y161470D01*
X297565Y161330D01*
Y161210D01*
X297570Y161105D01*
Y161060D01*
Y161020D01*
X297575Y160985D01*
Y160955D01*
Y160930D01*
Y160915D01*
Y160905D01*
Y160900D01*
X297050Y161180D01*
X297055Y161220D01*
Y161270D01*
X297060Y161380D01*
X297065Y161505D01*
X297070Y161640D01*
X297075Y161785D01*
Y161940D01*
X297080Y162245D01*
Y162395D01*
X297085Y162530D01*
Y162660D01*
Y162770D01*
Y162820D01*
Y162865D01*
Y162900D01*
Y162935D01*
Y162960D01*
Y162980D01*
Y162990D01*
Y162995D01*
X295025D01*
X295580Y163585D01*
X295965Y163200D01*
X297085D01*
Y164185D01*
X296315D01*
Y163870D01*
X295825Y164115D01*
X295830Y164155D01*
Y164205D01*
X295835Y164260D01*
Y164325D01*
X295840Y164395D01*
Y164470D01*
X295845Y164550D01*
Y164630D01*
X295850Y164810D01*
Y165005D01*
X295855Y165200D01*
Y165395D01*
Y165585D01*
X295860Y165770D01*
Y165935D01*
Y166015D01*
Y166085D01*
Y166150D01*
Y166210D01*
Y166260D01*
Y166305D01*
Y166340D01*
Y166365D01*
Y166380D01*
Y166385D01*
X295580Y166560D01*
X296070Y167015D01*
X296350Y166735D01*
X297085D01*
Y167645D01*
X295580D01*
X296105Y168200D01*
X296455Y167850D01*
X297085D01*
Y168550D01*
X296840Y168795D01*
X297575Y169115D01*
X297570Y168945D01*
D02*
G37*
G36*
X294180Y168935D02*
X294175Y168795D01*
X294170Y168665D01*
X294165Y168545D01*
X294160Y168435D01*
Y168335D01*
X294155Y168245D01*
Y168160D01*
Y168090D01*
X294150Y168025D01*
Y167970D01*
Y167930D01*
Y167895D01*
Y167870D01*
Y167855D01*
Y167850D01*
X295580D01*
X295270Y167540D01*
X295125Y167575D01*
X294975Y167600D01*
X294835Y167620D01*
X294705Y167630D01*
X294645Y167635D01*
X294595Y167640D01*
X294545D01*
X294505Y167645D01*
X294150D01*
Y166315D01*
X295405D01*
X295095Y166005D01*
X294950Y166040D01*
X294800Y166065D01*
X294660Y166085D01*
X294530Y166095D01*
X294470Y166100D01*
X294420Y166105D01*
X294370D01*
X294330Y166110D01*
X294150D01*
Y164845D01*
X295685D01*
X295370Y164535D01*
X295225Y164570D01*
X295080Y164595D01*
X294940Y164615D01*
X294810Y164625D01*
X294750Y164630D01*
X294700Y164635D01*
X294650D01*
X294610Y164640D01*
X294150D01*
Y164285D01*
Y163940D01*
X294155Y163600D01*
Y163270D01*
X294160Y162950D01*
Y162650D01*
X294165Y162365D01*
Y162225D01*
Y162095D01*
X294170Y161970D01*
Y161850D01*
Y161740D01*
X294175Y161635D01*
Y161535D01*
Y161440D01*
X294180Y161355D01*
Y161280D01*
Y161210D01*
Y161145D01*
X294185Y161095D01*
Y161050D01*
Y161015D01*
Y160990D01*
Y160975D01*
Y160970D01*
X293660Y161285D01*
X293670Y161560D01*
X293680Y161820D01*
X293685Y161950D01*
Y162070D01*
X293690Y162185D01*
Y162290D01*
Y162390D01*
X293695Y162480D01*
Y162555D01*
Y162625D01*
Y162680D01*
Y162715D01*
Y162740D01*
Y162750D01*
Y164640D01*
X292225D01*
Y164450D01*
Y164280D01*
X292230Y164120D01*
X292235Y163980D01*
X292240Y163850D01*
Y163735D01*
X292245Y163635D01*
X292250Y163545D01*
X292255Y163470D01*
X292260Y163405D01*
X292265Y163355D01*
X292270Y163310D01*
X292275Y163280D01*
Y163255D01*
X292280Y163245D01*
Y163240D01*
X292290Y163180D01*
X292305Y163125D01*
X292320Y163075D01*
X292335Y163030D01*
X292355Y162995D01*
X292375Y162965D01*
X292410Y162915D01*
X292445Y162885D01*
X292475Y162865D01*
X292495Y162855D01*
X292505D01*
X292545Y162850D01*
X292715D01*
X292785Y162855D01*
X292860Y162860D01*
X293010Y162875D01*
X293080Y162885D01*
X293150Y162895D01*
X293210Y162900D01*
X293270Y162910D01*
X293315Y162915D01*
X293350Y162920D01*
X293370Y162925D01*
X293380D01*
Y162785D01*
X293260Y162750D01*
X293155Y162710D01*
X293055Y162660D01*
X292970Y162615D01*
X292890Y162560D01*
X292820Y162510D01*
X292760Y162455D01*
X292710Y162405D01*
X292665Y162355D01*
X292630Y162310D01*
X292600Y162265D01*
X292580Y162230D01*
X292560Y162200D01*
X292550Y162175D01*
X292540Y162160D01*
Y162155D01*
X292435Y162205D01*
X292340Y162255D01*
X292255Y162315D01*
X292185Y162375D01*
X292120Y162435D01*
X292065Y162495D01*
X292015Y162555D01*
X291975Y162615D01*
X291945Y162670D01*
X291920Y162720D01*
X291900Y162770D01*
X291880Y162810D01*
X291870Y162845D01*
X291865Y162870D01*
X291860Y162885D01*
Y162890D01*
X291845Y162990D01*
X291830Y163105D01*
X291815Y163225D01*
X291800Y163360D01*
X291790Y163495D01*
X291780Y163635D01*
X291770Y163775D01*
X291765Y163915D01*
X291755Y164045D01*
X291750Y164170D01*
X291745Y164280D01*
X291740Y164375D01*
Y164455D01*
X291735Y164490D01*
Y164520D01*
Y164540D01*
Y164555D01*
Y164565D01*
Y164570D01*
X291525Y164740D01*
X291980Y165160D01*
X292260Y164845D01*
X293695D01*
Y166110D01*
X291805D01*
X292330Y166665D01*
X292680Y166315D01*
X293695D01*
Y167645D01*
X291630D01*
X292155Y168200D01*
X292505Y167850D01*
X293695D01*
Y168515D01*
X293450Y168765D01*
X294185Y169080D01*
X294180Y168935D01*
D02*
G37*
G36*
X289180Y168845D02*
X289175Y168675D01*
X289170Y168490D01*
X289165Y168305D01*
X289160Y167930D01*
X289155Y167750D01*
Y167575D01*
Y167410D01*
X289150Y167255D01*
Y167120D01*
Y167060D01*
Y167000D01*
Y166950D01*
Y166905D01*
Y166865D01*
Y166830D01*
Y166805D01*
Y166785D01*
Y166775D01*
Y166770D01*
X290410Y166705D01*
X290060Y166425D01*
X290000Y166450D01*
X289935Y166470D01*
X289865Y166490D01*
X289795Y166505D01*
X289735Y166515D01*
X289685Y166525D01*
X289665D01*
X289650Y166530D01*
X289640D01*
X289150Y166565D01*
Y165760D01*
X289165Y165485D01*
X289190Y165215D01*
X289220Y164955D01*
X289250Y164700D01*
X289290Y164455D01*
X289335Y164215D01*
X289380Y163980D01*
X289435Y163755D01*
X289490Y163540D01*
X289545Y163330D01*
X289605Y163130D01*
X289665Y162935D01*
X289730Y162755D01*
X289790Y162575D01*
X289855Y162410D01*
X289920Y162250D01*
X289985Y162100D01*
X290045Y161960D01*
X290110Y161825D01*
X290170Y161700D01*
X290225Y161585D01*
X290280Y161480D01*
X290330Y161385D01*
X290380Y161300D01*
X290425Y161225D01*
X290465Y161155D01*
X290500Y161100D01*
X290530Y161055D01*
X290555Y161015D01*
X290570Y160990D01*
X290580Y160975D01*
X290585Y160970D01*
X290480Y160900D01*
X290330Y161065D01*
X290190Y161235D01*
X290055Y161415D01*
X289930Y161600D01*
X289815Y161790D01*
X289705Y161985D01*
X289600Y162180D01*
X289505Y162380D01*
X289420Y162585D01*
X289335Y162785D01*
X289260Y162990D01*
X289190Y163190D01*
X289130Y163390D01*
X289070Y163585D01*
X289020Y163780D01*
X288970Y163970D01*
X288930Y164155D01*
X288890Y164335D01*
X288855Y164510D01*
X288825Y164675D01*
X288800Y164830D01*
X288780Y164975D01*
X288760Y165115D01*
X288740Y165240D01*
X288730Y165355D01*
X288720Y165460D01*
X288710Y165545D01*
X288705Y165620D01*
X288700Y165680D01*
X288695Y165725D01*
Y165750D01*
Y165760D01*
Y166600D01*
X287680Y166670D01*
Y162120D01*
Y161985D01*
X287660Y161865D01*
X287630Y161760D01*
X287590Y161670D01*
X287540Y161595D01*
X287485Y161530D01*
X287425Y161475D01*
X287360Y161435D01*
X287295Y161400D01*
X287235Y161370D01*
X287175Y161350D01*
X287125Y161340D01*
X287080Y161330D01*
X287045Y161325D01*
X287025Y161320D01*
X283065D01*
X282975Y161330D01*
X282895Y161350D01*
X282815Y161375D01*
X282745Y161405D01*
X282675Y161440D01*
X282615Y161480D01*
X282560Y161520D01*
X282515Y161560D01*
X282470Y161600D01*
X282435Y161640D01*
X282400Y161675D01*
X282375Y161710D01*
X282355Y161735D01*
X282340Y161755D01*
X282335Y161770D01*
X282330Y161775D01*
X282390Y161805D01*
X282445Y161835D01*
X282495Y161870D01*
X282540Y161910D01*
X282575Y161950D01*
X282605Y161995D01*
X282655Y162075D01*
X282685Y162155D01*
X282695Y162185D01*
X282705Y162215D01*
X282710Y162240D01*
X282715Y162260D01*
Y162270D01*
Y162275D01*
X282720Y162345D01*
X282725Y162425D01*
X282735Y162580D01*
X282740Y162745D01*
X282745Y162895D01*
Y162965D01*
X282750Y163030D01*
Y163090D01*
Y163140D01*
Y163185D01*
Y163215D01*
Y163235D01*
Y163240D01*
X282925D01*
X282940Y163045D01*
X282955Y162860D01*
X282975Y162685D01*
X282980Y162605D01*
X282990Y162530D01*
X283000Y162460D01*
X283005Y162400D01*
X283015Y162345D01*
X283020Y162295D01*
X283025Y162260D01*
Y162235D01*
X283030Y162215D01*
Y162210D01*
X283045Y162120D01*
X283070Y162045D01*
X283100Y161975D01*
X283130Y161920D01*
X283165Y161870D01*
X283205Y161830D01*
X283245Y161795D01*
X283285Y161770D01*
X283320Y161745D01*
X283360Y161730D01*
X283425Y161715D01*
X283450Y161710D01*
X283470Y161705D01*
X286825D01*
X286905Y161715D01*
X286975Y161735D01*
X287035Y161765D01*
X287080Y161800D01*
X287120Y161845D01*
X287150Y161890D01*
X287175Y161935D01*
X287195Y161980D01*
X287210Y162025D01*
X287215Y162070D01*
X287220Y162110D01*
X287225Y162140D01*
Y162170D01*
Y162185D01*
Y162190D01*
Y166565D01*
X286945Y166805D01*
X287470Y167225D01*
X287715Y166875D01*
X288695Y166805D01*
Y168345D01*
X288345Y168590D01*
X289185Y169010D01*
X289180Y168845D01*
D02*
G37*
G36*
X283940Y167885D02*
X285760D01*
X286250Y168165D01*
X286245Y167890D01*
X286240Y167625D01*
X286235Y167360D01*
X286230Y167105D01*
X286225Y166860D01*
Y166625D01*
X286220Y166405D01*
Y166200D01*
Y166015D01*
X286215Y165925D01*
Y165845D01*
Y165770D01*
Y165695D01*
Y165630D01*
Y165570D01*
Y165520D01*
Y165470D01*
Y165430D01*
Y165395D01*
Y165370D01*
Y165350D01*
Y165340D01*
Y165335D01*
Y164820D01*
X286220Y164560D01*
Y164305D01*
X286225Y164060D01*
Y163820D01*
X286230Y163590D01*
Y163375D01*
X286235Y163175D01*
Y163080D01*
X286240Y162995D01*
Y162910D01*
Y162835D01*
X286245Y162760D01*
Y162695D01*
Y162640D01*
Y162585D01*
X286250Y162540D01*
Y162505D01*
Y162475D01*
Y162455D01*
Y162440D01*
Y162435D01*
X285760Y162715D01*
Y163205D01*
X283870D01*
Y162610D01*
X283380Y162890D01*
X283385Y162970D01*
Y163065D01*
X283390Y163175D01*
Y163300D01*
X283395Y163440D01*
Y163590D01*
X283400Y163755D01*
Y163925D01*
Y164105D01*
X283405Y164290D01*
Y164485D01*
Y164680D01*
X283410Y165085D01*
Y165490D01*
Y165885D01*
X283415Y166075D01*
Y166260D01*
Y166440D01*
Y166610D01*
Y166770D01*
Y166915D01*
Y167050D01*
Y167175D01*
Y167280D01*
Y167370D01*
Y167445D01*
Y167470D01*
Y167495D01*
Y167515D01*
Y167530D01*
Y167535D01*
Y167540D01*
X283170Y167780D01*
X283695Y168200D01*
X283940Y167885D01*
D02*
G37*
%LPC*%
G36*
X298275Y166530D02*
X296315D01*
Y165580D01*
X298275D01*
Y166530D01*
D02*
G37*
G36*
Y165375D02*
X296315D01*
Y164390D01*
X298275D01*
Y165375D01*
D02*
G37*
G36*
X285760Y167680D02*
X283870D01*
Y165685D01*
X285760D01*
Y167680D01*
D02*
G37*
G36*
Y165480D02*
X283870D01*
Y163410D01*
X285760D01*
Y165480D01*
D02*
G37*
%LPD*%
D10*
X294501Y147898D02*
X295501Y148898D01*
X297500D01*
X298500Y147898D01*
Y143900D01*
X297500Y142900D01*
X295501D01*
X294501Y143900D01*
Y145899D01*
X296501D01*
X292502Y142900D02*
X290503D01*
X291502D01*
Y146899D01*
X292502D01*
X286504Y147898D02*
Y146899D01*
X287504D01*
X285504D01*
X286504D01*
Y143900D01*
X285504Y142900D01*
X282505Y148898D02*
Y142900D01*
Y145899D01*
X278506D01*
Y148898D01*
Y142900D01*
X276507Y146899D02*
Y143900D01*
X275507Y142900D01*
X272508D01*
Y146899D01*
X270509Y148898D02*
Y142900D01*
X267510D01*
X266510Y143900D01*
Y144899D01*
Y145899D01*
X267510Y146899D01*
X270509D01*
X294501Y125900D02*
X298500D01*
X294501Y129899D01*
Y130898D01*
X295501Y131898D01*
X297500D01*
X298500Y130898D01*
X292502D02*
X291502Y131898D01*
X289503D01*
X288503Y130898D01*
Y126900D01*
X289503Y125900D01*
X291502D01*
X292502Y126900D01*
Y130898D01*
X282505Y125900D02*
X286504D01*
X282505Y129899D01*
Y130898D01*
X283505Y131898D01*
X285504D01*
X286504Y130898D01*
X280506D02*
X279506Y131898D01*
X277507D01*
X276507Y130898D01*
Y129899D01*
X277507Y128899D01*
X278506D01*
X277507D01*
X276507Y127899D01*
Y126900D01*
X277507Y125900D01*
X279506D01*
X280506Y126900D01*
X274508Y125900D02*
X270509Y129899D01*
X268510Y125900D02*
X266510D01*
X267510D01*
Y131898D01*
X268510Y130898D01*
X259513Y125900D02*
X263511D01*
X259513Y129899D01*
Y130898D01*
X260512Y131898D01*
X262512D01*
X263511Y130898D01*
X257513Y125900D02*
X253515Y129899D01*
X251515Y125900D02*
X249516D01*
X250516D01*
Y131898D01*
X251515Y130898D01*
X246517D02*
X245517Y131898D01*
X243518D01*
X242518Y130898D01*
Y129899D01*
X243518Y128899D01*
X242518Y127899D01*
Y126900D01*
X243518Y125900D01*
X245517D01*
X246517Y126900D01*
Y127899D01*
X245517Y128899D01*
X246517Y129899D01*
Y130898D01*
X245517Y128899D02*
X243518D01*
D31*
X306900Y125100D02*
X320300D01*
X323000D02*
X324400D01*
X328400D02*
X329800D01*
X331100D02*
X336500D01*
X306900Y125200D02*
X320300D01*
X343100Y125100D02*
X350200D01*
X323000Y125200D02*
X324400D01*
X328400D02*
X329800D01*
X331100D02*
X336500D01*
X342900D02*
X350400D01*
X306900Y125300D02*
X320300D01*
X323000D02*
X324400D01*
X328400D02*
X329800D01*
X331100D02*
X336500D01*
X306900Y125400D02*
X320300D01*
X342800Y125300D02*
X350500D01*
X323000Y125400D02*
X324400D01*
X328400D02*
X329800D01*
X331100D02*
X336500D01*
X342600D02*
X350700D01*
X306900Y125500D02*
X320300D01*
X323000D02*
X324400D01*
X328400D02*
X329800D01*
X331100D02*
X336500D01*
X306900Y125600D02*
X320300D01*
X342500Y125500D02*
X350800D01*
X323000Y125600D02*
X324400D01*
X328400D02*
X329800D01*
X331100D02*
X336500D01*
X342400D02*
X350900D01*
X306900Y125000D02*
X320300D01*
X323000D02*
X324400D01*
X328400D02*
X329800D01*
X331100D02*
X336500D01*
X343400D02*
X349900D01*
X306900Y124900D02*
X320300D01*
X323000Y126200D02*
X324400D01*
X325700Y126500D02*
X327100D01*
X325700Y126700D02*
X327100D01*
X325700Y126800D02*
X327100D01*
X323000Y127400D02*
X324400D01*
X320300Y131700D02*
X323000D01*
X320300Y131900D02*
X323000D01*
X320300Y132100D02*
X323000D01*
X320300Y132400D02*
X323000D01*
X325700Y127000D02*
X327100D01*
X310800Y126100D02*
X312200D01*
X308100D02*
X309500D01*
X323000Y124900D02*
X324400D01*
X328400D02*
X329800D01*
X331100D02*
X336500D01*
X344000D02*
X349300D01*
X323000Y126100D02*
X324400D01*
X325700D02*
X327100D01*
X329700D02*
X332500D01*
X321600Y136300D02*
X324400D01*
X320300Y132700D02*
X323000D01*
X308100Y127200D02*
X309500D01*
X310800D02*
X312200D01*
X313500D02*
X314900D01*
X317600D02*
X320300D01*
X323000D02*
X324400D01*
X308100Y127300D02*
X309500D01*
X325700Y127400D02*
X327100D01*
X325700Y131600D02*
X328400D01*
X325700Y132300D02*
X328400D01*
X325700Y132400D02*
X328400D01*
X325700Y132600D02*
X328400D01*
X325700Y127300D02*
X327100D01*
X313500Y127400D02*
X314900D01*
X317600D02*
X320300D01*
X317600Y131600D02*
X319000D01*
X306900D02*
X308100D01*
X327000Y132900D02*
X329800D01*
X327000Y133200D02*
X329800D01*
X327000Y133900D02*
X329800D01*
X332400Y131600D02*
X335200D01*
X306900Y131700D02*
X308100D01*
X312200D02*
X313600D01*
X317600D02*
X319000D01*
X306900Y131800D02*
X308100D01*
X317600D02*
X319000D01*
X320300D02*
X323000D01*
X317600Y132900D02*
X321700D01*
X312200Y131800D02*
X313600D01*
X306900Y131900D02*
X308100D01*
X312200D02*
X313600D01*
X317600D02*
X319000D01*
X306900Y132000D02*
X308100D01*
X310800Y132900D02*
X313600D01*
X314900D02*
X316300D01*
X306900D02*
X309500D01*
X306900Y132800D02*
X308100D01*
X306900Y125700D02*
X320300D01*
X323000D02*
X324400D01*
X328400D02*
X329800D01*
X331100D02*
X336500D01*
X306900Y125800D02*
X320300D01*
X342400Y125700D02*
X351000D01*
X323000Y125800D02*
X324400D01*
X328400D02*
X329800D01*
X331100D02*
X336500D01*
X342300D02*
X351000D01*
X306900Y125900D02*
X320300D01*
X323000D02*
X324400D01*
X328400D02*
X329800D01*
X331100D02*
X336500D01*
X306900Y126000D02*
X320300D01*
X323000D02*
X324400D01*
X342200Y125900D02*
X351100D01*
X308100Y126200D02*
X309500D01*
X310800D02*
X312200D01*
X313500D02*
X314900D01*
X317600D02*
X320300D01*
X308100Y126400D02*
X309500D01*
X313500Y126100D02*
X314900D01*
X316200D02*
X316300D01*
X317600D02*
X320300D01*
X342100D02*
X351200D01*
X325700Y126200D02*
X327100D01*
X329700D02*
X332500D01*
X333800D02*
X339200D01*
X342100D02*
X351200D01*
X328400Y126000D02*
X329800D01*
X331100D02*
X336500D01*
X333800Y126100D02*
X339200D01*
X342200Y126000D02*
X351100D01*
X310800Y126400D02*
X312200D01*
X313500D02*
X314900D01*
X317600D02*
X320300D01*
X325700D02*
X327100D01*
X308100Y126300D02*
X309500D01*
X310800D02*
X312200D01*
X313500D02*
X314900D01*
X317600D02*
X320300D01*
X323000D02*
X324400D01*
X325700D02*
X327100D01*
X329700D02*
X332500D01*
X333800D02*
X339200D01*
X342100D02*
X344700D01*
X323000Y126400D02*
X324400D01*
X348700Y126300D02*
X351200D01*
X308100Y126500D02*
X309500D01*
X310800D02*
X312200D01*
X313500D02*
X314900D01*
X317600D02*
X320300D01*
X323000D02*
X324400D01*
X308100Y127100D02*
X309500D01*
X329700Y126400D02*
X332500D01*
X333800D02*
X339200D01*
X342000D02*
X344200D01*
X329700Y127000D02*
X332500D01*
X349100Y126400D02*
X351300D01*
X329700Y126500D02*
X332500D01*
X333800D02*
X339200D01*
X342000D02*
X344000D01*
X349300D02*
X351300D01*
X308100Y126600D02*
X309500D01*
X310800D02*
X312200D01*
X313500D02*
X314900D01*
X317600D02*
X320300D01*
X323000D02*
X324400D01*
X325700D02*
X327100D01*
X329700D02*
X332500D01*
X333800D02*
X339200D01*
X342000D02*
X343900D01*
X308100Y126700D02*
X309500D01*
X310800D02*
X312200D01*
X349400Y126600D02*
X351300D01*
X313500Y126700D02*
X314900D01*
X317600D02*
X320300D01*
X323000D02*
X324400D01*
X333800Y127000D02*
X339200D01*
X329700Y126700D02*
X332500D01*
X333800D02*
X339200D01*
X342000D02*
X343800D01*
X349600D02*
X351300D01*
X308100Y126800D02*
X309500D01*
X310800D02*
X312200D01*
X313500D02*
X314900D01*
X317600D02*
X320300D01*
X323000D02*
X324400D01*
X341900Y127000D02*
X343500D01*
X329700Y126800D02*
X332500D01*
X333800D02*
X339200D01*
X342000D02*
X343700D01*
X349600D02*
X351300D01*
X308100Y126900D02*
X309500D01*
X310800D02*
X312200D01*
X313500D02*
X314900D01*
X317600D02*
X320300D01*
X323000D02*
X324400D01*
X325700D02*
X327100D01*
X329700D02*
X332500D01*
X333800D02*
X339200D01*
X342000D02*
X343600D01*
X308100Y127000D02*
X309500D01*
X310800D02*
X312200D01*
X349700Y126900D02*
X351400D01*
X310800Y127100D02*
X312200D01*
X313500D02*
X314900D01*
X317600D02*
X320300D01*
X323000D02*
X324400D01*
X313500Y127300D02*
X314900D01*
X317600D02*
X320300D01*
X323000D02*
X324400D01*
X325700Y127200D02*
X327100D01*
X310800Y127300D02*
X312200D01*
X325700Y127100D02*
X327100D01*
X313500Y127000D02*
X314900D01*
X317600D02*
X320300D01*
X323000D02*
X324400D01*
X349800D02*
X351400D01*
X329700Y127100D02*
X332500D01*
X333800D02*
X339200D01*
X341900D02*
X343500D01*
X349800D02*
X351400D01*
X329700Y127200D02*
X332500D01*
X333800D02*
X339200D01*
X341900D02*
X343400D01*
X349900D02*
X351400D01*
X329700Y127300D02*
X332500D01*
X333800D02*
X339200D01*
X341900D02*
X343400D01*
X349900D02*
X351400D01*
X308100Y127400D02*
X309500D01*
X310800D02*
X312200D01*
X329700D02*
X332500D01*
X333800D02*
X339200D01*
X341900D02*
X343400D01*
X349900D02*
X351400D01*
X306900Y127500D02*
X308100D01*
X309500D02*
X314900D01*
X316200D02*
X319000D01*
X321600D02*
X323000D01*
X325700D02*
X327100D01*
X331100D02*
X332500D01*
X336500D02*
X340600D01*
X341900D02*
X343400D01*
X306900Y127600D02*
X308100D01*
X309500D02*
X314900D01*
X349900Y127500D02*
X351400D01*
X316200Y127600D02*
X319000D01*
X321600D02*
X323000D01*
X325700D02*
X327100D01*
X331100D02*
X332500D01*
X336500D02*
X340600D01*
X341900D02*
X343400D01*
X345300D02*
X348000D01*
X350000D02*
X351400D01*
X306900Y127700D02*
X308100D01*
X309500D02*
X314900D01*
X316200D02*
X319000D01*
X321600D02*
X323000D01*
X325700D02*
X327100D01*
X331100D02*
X332500D01*
X336500D02*
X340600D01*
X341900D02*
X343300D01*
X345000D02*
X348300D01*
X306900Y127800D02*
X308100D01*
X309500D02*
X314900D01*
X350000Y127700D02*
X351400D01*
X316200Y127800D02*
X319000D01*
X321600D02*
X323000D01*
X325700D02*
X327100D01*
X331100D02*
X332500D01*
X336500D02*
X340600D01*
X341900D02*
X343300D01*
X344900D02*
X348400D01*
X350000D02*
X351400D01*
X306900Y127900D02*
X308100D01*
X309500D02*
X314900D01*
X316200D02*
X319000D01*
X321600D02*
X323000D01*
X325700D02*
X327100D01*
X331100D02*
X332500D01*
X336500D02*
X340600D01*
X341900D02*
X343300D01*
X344800D02*
X348500D01*
X306900Y128000D02*
X308100D01*
X309500D02*
X314900D01*
X350000Y127900D02*
X351400D01*
X316200Y128000D02*
X319000D01*
X321600D02*
X323000D01*
X325700D02*
X327100D01*
X331100D02*
X332500D01*
X336500D02*
X340600D01*
X341900D02*
X343300D01*
X344700D02*
X348600D01*
X350000D02*
X351400D01*
X306900Y128100D02*
X308100D01*
X309500D02*
X314900D01*
X316200D02*
X319000D01*
X321600D02*
X323000D01*
X325700D02*
X327100D01*
X331100D02*
X332500D01*
X336500D02*
X340600D01*
X341900D02*
X343300D01*
X344700D02*
X348600D01*
X350000D02*
X351400D01*
X306900Y128200D02*
X308100D01*
X309500D02*
X314900D01*
X316200D02*
X319000D01*
X321600D02*
X323000D01*
X325700D02*
X327100D01*
X331100D02*
X332500D01*
X336500D02*
X340600D01*
X341900D02*
X343300D01*
X344700D02*
X348600D01*
X306900Y128300D02*
X308100D01*
X309500D02*
X314900D01*
X350000Y128200D02*
X351400D01*
X316200Y128300D02*
X319000D01*
X321600D02*
X323000D01*
X325700D02*
X327100D01*
X331100D02*
X332500D01*
X336500D02*
X340600D01*
X341900D02*
X343300D01*
X344600D02*
X348700D01*
X350000D02*
X351400D01*
X306900Y128400D02*
X308100D01*
X309500D02*
X314900D01*
X316200D02*
X319000D01*
X321600D02*
X323000D01*
X325700D02*
X327100D01*
X331100D02*
X332500D01*
X336500D02*
X340600D01*
X341900D02*
X343300D01*
X344600D02*
X348700D01*
X306900Y128500D02*
X308100D01*
X309500D02*
X314900D01*
X350000Y128400D02*
X351400D01*
X316200Y128500D02*
X319000D01*
X321600D02*
X323000D01*
X325700D02*
X327100D01*
X331100D02*
X332500D01*
X336500D02*
X340600D01*
X341900D02*
X343300D01*
X344600D02*
X348700D01*
X350000D02*
X351400D01*
X306900Y128600D02*
X308100D01*
X309500D02*
X314900D01*
X316200D02*
X319000D01*
X321600D02*
X323000D01*
X325700D02*
X327100D01*
X331100D02*
X332500D01*
X336500D02*
X340600D01*
X341900D02*
X343300D01*
X344600D02*
X348700D01*
X306900Y128700D02*
X308100D01*
X309500D02*
X314900D01*
X350000Y128600D02*
X351400D01*
X316200Y128700D02*
X319000D01*
X321600D02*
X323000D01*
X325700D02*
X327100D01*
X331100D02*
X332500D01*
X336500D02*
X340600D01*
X341900D02*
X343300D01*
X344600D02*
X348700D01*
X310800Y128800D02*
X313600D01*
X350000Y128700D02*
X351400D01*
X320300Y128800D02*
X321700D01*
X325700D02*
X327100D01*
X328400D02*
X331100D01*
X332400D02*
X333800D01*
X337800D02*
X339200D01*
X341900D02*
X343300D01*
X344600D02*
X348700D01*
X350000D02*
X351400D01*
X310800Y128900D02*
X313600D01*
X320300D02*
X321700D01*
X325700D02*
X327100D01*
X328400D02*
X331100D01*
X332400D02*
X333800D01*
X337800D02*
X339200D01*
X341900D02*
X343300D01*
X344600D02*
X348700D01*
X350000D02*
X351400D01*
X310800Y129000D02*
X313600D01*
X320300D02*
X321700D01*
X325700D02*
X327100D01*
X328400D02*
X331100D01*
X332400D02*
X333800D01*
X337800D02*
X339200D01*
X341900D02*
X343300D01*
X344600D02*
X348700D01*
X310800Y129100D02*
X313600D01*
X350000Y129000D02*
X351400D01*
X320300Y129100D02*
X321700D01*
X325700D02*
X327100D01*
X328400D02*
X331100D01*
X332400D02*
X333800D01*
X337800D02*
X339200D01*
X341900D02*
X343300D01*
X344600D02*
X348700D01*
X350000D02*
X351400D01*
X310800Y129200D02*
X313600D01*
X320300D02*
X321700D01*
X325700D02*
X327100D01*
X328400D02*
X331100D01*
X332400D02*
X333800D01*
X337800D02*
X339200D01*
X341900D02*
X343300D01*
X344600D02*
X348700D01*
X310800Y129300D02*
X313600D01*
X350000Y129200D02*
X351400D01*
X320300Y129300D02*
X321700D01*
X325700D02*
X327100D01*
X328400D02*
X331100D01*
X332400D02*
X333800D01*
X337800D02*
X339200D01*
X341900D02*
X343300D01*
X344600D02*
X348700D01*
X350000D02*
X351400D01*
X310800Y129400D02*
X313600D01*
X320300D02*
X321700D01*
X325700D02*
X327100D01*
X328400D02*
X331100D01*
X332400D02*
X333800D01*
X337800D02*
X339200D01*
X341900D02*
X343300D01*
X344600D02*
X348700D01*
X310800Y129500D02*
X313600D01*
X350000Y129400D02*
X351400D01*
X320300Y129500D02*
X321700D01*
X325700D02*
X327100D01*
X328400D02*
X331100D01*
X332400D02*
X333800D01*
X337800D02*
X339200D01*
X341900D02*
X343300D01*
X344600D02*
X348700D01*
X350000D02*
X351400D01*
X310800Y129600D02*
X313600D01*
X320300D02*
X321700D01*
X325700D02*
X327100D01*
X328400D02*
X331100D01*
X332400D02*
X333800D01*
X337800D02*
X339200D01*
X341900D02*
X343300D01*
X344600D02*
X348700D01*
X350000D02*
X351400D01*
X310800Y129700D02*
X313600D01*
X320300D02*
X321700D01*
X325700D02*
X327100D01*
X328400D02*
X331100D01*
X332400D02*
X333800D01*
X337800D02*
X339200D01*
X341900D02*
X343300D01*
X344600D02*
X348700D01*
X310800Y129800D02*
X313600D01*
X350000Y129700D02*
X351400D01*
X320300Y129800D02*
X321700D01*
X325700D02*
X327100D01*
X328400D02*
X331100D01*
X332400D02*
X333800D01*
X337800D02*
X339200D01*
X341900D02*
X343300D01*
X344600D02*
X348700D01*
X350000D02*
X351400D01*
X310800Y129900D02*
X313600D01*
X320300D02*
X321700D01*
X325700D02*
X327100D01*
X328400D02*
X331100D01*
X332400D02*
X333800D01*
X337800D02*
X339200D01*
X341900D02*
X343300D01*
X344600D02*
X348700D01*
X310800Y130000D02*
X313600D01*
X350000Y129900D02*
X351400D01*
X320300Y130000D02*
X321700D01*
X325700D02*
X327100D01*
X328400D02*
X331100D01*
X332400D02*
X333800D01*
X337800D02*
X339200D01*
X341900D02*
X343300D01*
X344600D02*
X348700D01*
X350000D02*
X351400D01*
X310800Y130100D02*
X313600D01*
X320300D02*
X321700D01*
X325700D02*
X327100D01*
X328400D02*
X331100D01*
X332400D02*
X333800D01*
X337800D02*
X339200D01*
X341900D02*
X343300D01*
X344600D02*
X348700D01*
X308100Y130200D02*
X309500D01*
X312200D02*
X319000D01*
X350000Y130100D02*
X351400D01*
X320300Y130200D02*
X321700D01*
X323000D02*
X328400D01*
X329700D02*
X332500D01*
X335100D02*
X337900D01*
X339200D02*
X340600D01*
X341900D02*
X343300D01*
X344600D02*
X348700D01*
X350000D02*
X351400D01*
X308100Y130300D02*
X309500D01*
X312200D02*
X319000D01*
X320300D02*
X321700D01*
X323000D02*
X328400D01*
X329700D02*
X332500D01*
X335100D02*
X337900D01*
X339200D02*
X340600D01*
X341900D02*
X343300D01*
X344600D02*
X348700D01*
X350000D02*
X351400D01*
X308100Y130400D02*
X309500D01*
X312200D02*
X319000D01*
X320300D02*
X321700D01*
X323000D02*
X328400D01*
X329700D02*
X332500D01*
X335100D02*
X337900D01*
X339200D02*
X340600D01*
X341900D02*
X343300D01*
X344600D02*
X348700D01*
X308100Y130500D02*
X309500D01*
X312200D02*
X319000D01*
X350000Y130400D02*
X351400D01*
X320300Y130500D02*
X321700D01*
X323000D02*
X328400D01*
X329700D02*
X332500D01*
X335100D02*
X337900D01*
X339200D02*
X340600D01*
X341900D02*
X343300D01*
X344600D02*
X348700D01*
X350000D02*
X351400D01*
X308100Y130600D02*
X309500D01*
X312200D02*
X319000D01*
X320300D02*
X321700D01*
X323000D02*
X328400D01*
X329700D02*
X332500D01*
X335100D02*
X337900D01*
X339200D02*
X340600D01*
X341900D02*
X343300D01*
X344600D02*
X348700D01*
X308100Y130700D02*
X309500D01*
X312200D02*
X319000D01*
X350000Y130600D02*
X351400D01*
X320300Y130700D02*
X321700D01*
X323000D02*
X328400D01*
X329700D02*
X332500D01*
X335100D02*
X337900D01*
X339200D02*
X340600D01*
X341900D02*
X343300D01*
X344600D02*
X348700D01*
X350000D02*
X351400D01*
X308100Y130800D02*
X309500D01*
X312200D02*
X319000D01*
X320300D02*
X321700D01*
X323000D02*
X328400D01*
X329700D02*
X332500D01*
X335100D02*
X337900D01*
X339200D02*
X340600D01*
X341900D02*
X343300D01*
X344600D02*
X348700D01*
X308100Y130900D02*
X309500D01*
X312200D02*
X319000D01*
X350000Y130800D02*
X351400D01*
X320300Y130900D02*
X321700D01*
X323000D02*
X328400D01*
X329700D02*
X332500D01*
X335100D02*
X337900D01*
X339200D02*
X340600D01*
X341900D02*
X343300D01*
X344600D02*
X348700D01*
X350000D02*
X351400D01*
X306900Y132700D02*
X308100D01*
X312200D02*
X313600D01*
X317600D02*
X319000D01*
X342000Y132800D02*
X344200D01*
X325700Y132700D02*
X328400D01*
X332400D02*
X335200D01*
X336500D02*
X340600D01*
X342000D02*
X344000D01*
X325700Y132800D02*
X328400D01*
X349300Y132700D02*
X351300D01*
X312200Y132800D02*
X313600D01*
X317600D02*
X319000D01*
X320300D02*
X323000D01*
X349100D02*
X351300D01*
X331100Y132900D02*
X332500D01*
X331100Y135600D02*
X332500D01*
X331100Y135700D02*
X332500D01*
X331100Y135800D02*
X332500D01*
X331100Y135900D02*
X332500D01*
X331100Y136300D02*
X332500D01*
X331100Y136400D02*
X332500D01*
X331100Y136500D02*
X332500D01*
X331100Y136600D02*
X332500D01*
X337800Y132900D02*
X339200D01*
X306900Y133000D02*
X309500D01*
X310800D02*
X313600D01*
X314900D02*
X316300D01*
X317600D02*
X321700D01*
X327000D02*
X329800D01*
X331100D02*
X332500D01*
X333800D02*
X336500D01*
X337800D02*
X339200D01*
X327000Y133100D02*
X329800D01*
X306900D02*
X309500D01*
X314900D02*
X316300D01*
X317600D02*
X321700D01*
X317600Y133200D02*
X321700D01*
X310800Y133100D02*
X313600D01*
X306900Y133200D02*
X309500D01*
X310800D02*
X313600D01*
X314900D02*
X316300D01*
X310800Y133300D02*
X313600D01*
X306900D02*
X309500D01*
X314900D02*
X316300D01*
X317600D02*
X321700D01*
X327000D02*
X329800D01*
X342200D02*
X351100D01*
X306900Y133400D02*
X309500D01*
X310800D02*
X313600D01*
X314900D02*
X316300D01*
X317600D02*
X321700D01*
X327000D02*
X329800D01*
X331100D02*
X332500D01*
X333800D02*
X336500D01*
X337800D02*
X339200D01*
X327000Y133600D02*
X329800D01*
X306900Y133500D02*
X309500D01*
X306900Y133800D02*
X309500D01*
X310800D02*
X313600D01*
X314900D02*
X316300D01*
X317600D02*
X321700D01*
X327000D02*
X329800D01*
X331100D02*
X332500D01*
X333800D02*
X336500D01*
X317600Y134000D02*
X321700D01*
X321600Y135500D02*
X323000D01*
X306900Y133900D02*
X309500D01*
X327000Y134000D02*
X329800D01*
X331100D02*
X332500D01*
X333800D02*
X336500D01*
X337800D02*
X339200D01*
X321600Y135400D02*
X323000D01*
X342900Y134000D02*
X350400D01*
X306900Y134200D02*
X313600D01*
X314900D02*
X316200D01*
X317600D02*
X323000D01*
X325700D02*
X329800D01*
X331100D02*
X336500D01*
X337800D02*
X340600D01*
X310800Y136300D02*
X320300D01*
X306900Y134300D02*
X310800D01*
X306900Y134000D02*
X309500D01*
X310800D02*
X313600D01*
X310800Y134100D02*
X313600D01*
X306900D02*
X309500D01*
X317600Y132000D02*
X319000D01*
X320300D02*
X323000D01*
X317600Y132400D02*
X319000D01*
X312200Y132000D02*
X313600D01*
X325700Y131900D02*
X328400D01*
X332400D02*
X335200D01*
X336500D02*
X340600D01*
X341900D02*
X343400D01*
X325700Y132000D02*
X328400D01*
X349900Y131900D02*
X351400D01*
X306900Y132100D02*
X308100D01*
X312200D02*
X313600D01*
X317600D02*
X319000D01*
X306900Y132200D02*
X308100D01*
X332400Y132000D02*
X335200D01*
X336500D02*
X340600D01*
X341900D02*
X343400D01*
X349900D02*
X351400D01*
X312200Y132200D02*
X313600D01*
X317600D02*
X319000D01*
X320300D02*
X323000D01*
X312200Y132400D02*
X313600D01*
X325700Y132100D02*
X328400D01*
X332400D02*
X335200D01*
X336500D02*
X340600D01*
X341900D02*
X343500D01*
X325700Y132200D02*
X328400D01*
X349800Y132100D02*
X351400D01*
X306900Y132300D02*
X308100D01*
X312200D02*
X313600D01*
X317600D02*
X319000D01*
X320300D02*
X323000D01*
X306900Y132400D02*
X308100D01*
X332400Y132200D02*
X335200D01*
X336500D02*
X340600D01*
X341900D02*
X343500D01*
X349800D02*
X351400D01*
X332400Y132300D02*
X335200D01*
X336500D02*
X340600D01*
X342000D02*
X343600D01*
X332400Y132800D02*
X335200D01*
X349700Y132300D02*
X351400D01*
X332400Y132400D02*
X335200D01*
X336500D02*
X340600D01*
X342000D02*
X343700D01*
X349700D02*
X351300D01*
X306900Y132500D02*
X308100D01*
X312200D02*
X313600D01*
X317600D02*
X319000D01*
X320300D02*
X323000D01*
X325700D02*
X328400D01*
X332400D02*
X335200D01*
X336500D02*
X340600D01*
X342000D02*
X343700D01*
X306900Y132600D02*
X308100D01*
X349600Y132500D02*
X351300D01*
X312200Y132600D02*
X313600D01*
X317600D02*
X319000D01*
X320300D02*
X323000D01*
X336500Y132800D02*
X340600D01*
X332400Y132600D02*
X335200D01*
X336500D02*
X340600D01*
X342000D02*
X343900D01*
X349500D02*
X351300D01*
X308100Y131000D02*
X309500D01*
X312200D02*
X319000D01*
X320300D02*
X321700D01*
X323000D02*
X328400D01*
X329700D02*
X332500D01*
X335100D02*
X337900D01*
X339200D02*
X340600D01*
X341900D02*
X343300D01*
X344700D02*
X348700D01*
X308100Y131100D02*
X309500D01*
X312200D02*
X319000D01*
X350000Y131000D02*
X351400D01*
X320300Y131100D02*
X321700D01*
X323000D02*
X328400D01*
X329700D02*
X332500D01*
X335100D02*
X337900D01*
X339200D02*
X340600D01*
X341900D02*
X343300D01*
X344700D02*
X348600D01*
X350000D02*
X351400D01*
X308100Y131200D02*
X309500D01*
X312200D02*
X319000D01*
X320300D02*
X321700D01*
X323000D02*
X328400D01*
X329700D02*
X332500D01*
X335100D02*
X337900D01*
X339200D02*
X340600D01*
X341900D02*
X343300D01*
X344700D02*
X348600D01*
X308100Y131300D02*
X309500D01*
X312200D02*
X319000D01*
X350000Y131200D02*
X351400D01*
X320300Y131300D02*
X321700D01*
X323000D02*
X328400D01*
X329700D02*
X332500D01*
X335100D02*
X337900D01*
X308100Y131400D02*
X309500D01*
X312200D02*
X319000D01*
X320300D02*
X321700D01*
X323000D02*
X328400D01*
X329700D02*
X332500D01*
X335100D02*
X337900D01*
X339200D02*
X340600D01*
X341900D02*
X343300D01*
X344900D02*
X348400D01*
X306900Y131500D02*
X309500D01*
X350000Y131400D02*
X351400D01*
X312200Y131500D02*
X319000D01*
X320300D02*
X328400D01*
X329700D02*
X340600D01*
X341900D02*
X343300D01*
X345000D02*
X348300D01*
X312200Y131600D02*
X313600D01*
X320300D02*
X323000D01*
X350000Y131500D02*
X351400D01*
X336500Y131600D02*
X340600D01*
X341900D02*
X343300D01*
X345300D02*
X348100D01*
X350000D02*
X351400D01*
X325700Y131700D02*
X328400D01*
X332400D02*
X335200D01*
X336500D02*
X340600D01*
X341900D02*
X343400D01*
X325700Y131800D02*
X328400D01*
X349900Y131700D02*
X351400D01*
X332400Y131800D02*
X335200D01*
X336500D02*
X340600D01*
X341900D02*
X343400D01*
X349900D02*
X351400D01*
X339200Y131300D02*
X340600D01*
X341900D02*
X343300D01*
X344800D02*
X348500D01*
X350000D02*
X351400D01*
X331100Y133100D02*
X332500D01*
X333800D02*
X336500D01*
X337800D02*
X339200D01*
X342100D02*
X351200D01*
X331100Y133200D02*
X332500D01*
X333800D02*
X336500D01*
X337800D02*
X339200D01*
X331100Y133600D02*
X332500D01*
X342200Y133200D02*
X351100D01*
X331100Y133300D02*
X332500D01*
X333800D02*
X336500D01*
X337800D02*
X339200D01*
X342300Y133400D02*
X351000D01*
X333800Y132900D02*
X336500D01*
X342100D02*
X344600D01*
X342100Y133000D02*
X351200D01*
X348700Y132900D02*
X351200D01*
X317600Y134300D02*
X319000D01*
X321600D02*
X323000D01*
X325700D02*
X327100D01*
X312200D02*
X313600D01*
X312200Y134400D02*
X313600D01*
X317600D02*
X319000D01*
X321600D02*
X323000D01*
X306900D02*
X310800D01*
X325700D02*
X327100D01*
X328400D02*
X329800D01*
X331100D02*
X336500D01*
X339200D02*
X340600D01*
X325700Y134500D02*
X327100D01*
X328400D02*
X329800D01*
X331100D02*
X336500D01*
X339200D02*
X340600D01*
X325700Y134600D02*
X327100D01*
X328400D02*
X329800D01*
X331100D02*
X336500D01*
X339200D02*
X340600D01*
X325700Y134700D02*
X327100D01*
X328400D02*
X329800D01*
X331100D02*
X336500D01*
X339200D02*
X340600D01*
X325700Y134800D02*
X327100D01*
X328400D02*
X329800D01*
X331100D02*
X336500D01*
X339200D02*
X340600D01*
X325700Y134900D02*
X327100D01*
X328400D02*
X329800D01*
X331100D02*
X336500D01*
X339200D02*
X340600D01*
X325700Y135000D02*
X327100D01*
X328400D02*
X329800D01*
X331100D02*
X336500D01*
X339200D02*
X340600D01*
X325700Y135200D02*
X327100D01*
X328400D02*
X329800D01*
X331100D02*
X336500D01*
X339200D02*
X340600D01*
X325700Y135300D02*
X327100D01*
X328400D02*
X329800D01*
X331100D02*
X336500D01*
X339200D02*
X340600D01*
X325700Y135100D02*
X327100D01*
X328400D02*
X329800D01*
X331100D02*
X336500D01*
X339200D02*
X340600D01*
X312200Y134500D02*
X313600D01*
X317600D02*
X319000D01*
X321600D02*
X323000D01*
X306900D02*
X310800D01*
X312200Y134600D02*
X313600D01*
X317600D02*
X319000D01*
X321600D02*
X323000D01*
X306900D02*
X310800D01*
X312200Y134700D02*
X313600D01*
X317600D02*
X319000D01*
X321600D02*
X323000D01*
X306900D02*
X310800D01*
X312200Y134800D02*
X313600D01*
X317600D02*
X319000D01*
X321600D02*
X323000D01*
X306900D02*
X310800D01*
X312200Y134900D02*
X313600D01*
X317600D02*
X319000D01*
X321600D02*
X323000D01*
X306900D02*
X310800D01*
X312200Y135000D02*
X313600D01*
X317600D02*
X319000D01*
X321600D02*
X323000D01*
X306900D02*
X310800D01*
X312200Y135100D02*
X313600D01*
X317600D02*
X319000D01*
X321600D02*
X323000D01*
X306900D02*
X310800D01*
X314900Y133500D02*
X316300D01*
X317600D02*
X321700D01*
X327000D02*
X329800D01*
X310800D02*
X313600D01*
X306900Y133600D02*
X309500D01*
X310800D02*
X313600D01*
X314900D02*
X316300D01*
X317600D02*
X321700D01*
X310800Y133700D02*
X313600D01*
X306900D02*
X309500D01*
X331100Y133500D02*
X332500D01*
X333800D02*
X336500D01*
X337800D02*
X339200D01*
X342400D02*
X351000D01*
X314900Y133700D02*
X316300D01*
X317600D02*
X321700D01*
X327000D02*
X329800D01*
X342500D02*
X350800D01*
X314900Y133900D02*
X316300D01*
X317600D02*
X321700D01*
X314900Y134000D02*
X316300D01*
X310800Y133900D02*
X313600D01*
X331100Y133700D02*
X332500D01*
X333800D02*
X336500D01*
X337800D02*
X339200D01*
X342600Y133800D02*
X350700D01*
X331100Y133900D02*
X332500D01*
X333800D02*
X336500D01*
X337800D02*
X339200D01*
X342700D02*
X350600D01*
X314900Y134100D02*
X316300D01*
X317600D02*
X321700D01*
X327000D02*
X329800D01*
X343100D02*
X350200D01*
X328400Y134300D02*
X329800D01*
X331100D02*
X336500D01*
X339200D02*
X340600D01*
X343900D02*
X349400D01*
X331100Y134100D02*
X332500D01*
X333800D02*
X336500D01*
X337800D02*
X339200D01*
X343400Y134200D02*
X349900D01*
X333800Y133600D02*
X336500D01*
X337800D02*
X339200D01*
X337800Y133800D02*
X339200D01*
X342400Y133600D02*
X350900D01*
X308100Y135700D02*
X309500D01*
X310800D02*
X320300D01*
X321600D02*
X324400D01*
X308100Y136300D02*
X309500D01*
X333800Y135700D02*
X337900D01*
X340500D02*
X344600D01*
X345900D02*
X348700D01*
X350000D02*
X351400D01*
X308100Y135800D02*
X309500D01*
X310800D02*
X320300D01*
X321600D02*
X324400D01*
X340500Y136100D02*
X344600D01*
X333800Y135800D02*
X337900D01*
X340500D02*
X344600D01*
X345900D02*
X348700D01*
X350000D02*
X351400D01*
X308100Y135900D02*
X309500D01*
X310800D02*
X320300D01*
X321600D02*
X324400D01*
X345900Y136100D02*
X348700D01*
X333800Y135900D02*
X337900D01*
X340500D02*
X344600D01*
X345900D02*
X348700D01*
X350000D02*
X351400D01*
X308100Y136000D02*
X309500D01*
X310800D02*
X320300D01*
X321600D02*
X324400D01*
X331100D02*
X332500D01*
X333800D02*
X337900D01*
X340500D02*
X344600D01*
X345900D02*
X348700D01*
X308100Y136100D02*
X309500D01*
X310800D02*
X320300D01*
X350000Y136000D02*
X351400D01*
X321600Y136100D02*
X324400D01*
X331100D02*
X332500D01*
X333800D02*
X337900D01*
X350000D02*
X351400D01*
X333800Y135600D02*
X337900D01*
X340500D02*
X344600D01*
X345900D02*
X348700D01*
X350000D02*
X351400D01*
X312200Y135200D02*
X313600D01*
X317600D02*
X319000D01*
X321600D02*
X323000D01*
X306900D02*
X310800D01*
X312200Y135300D02*
X313600D01*
X317600D02*
X319000D01*
X321600D02*
X323000D01*
X306900D02*
X310800D01*
X306900Y135400D02*
X310800D01*
X312200D02*
X313600D01*
X317600D02*
X319000D01*
X308100Y135600D02*
X309500D01*
X325700Y135400D02*
X327100D01*
X328400D02*
X329800D01*
X331100D02*
X336500D01*
X339200D02*
X340600D01*
X306900Y135500D02*
X310800D01*
X312200D02*
X313600D01*
X317600D02*
X319000D01*
X331100Y136700D02*
X332500D01*
X325700Y135500D02*
X327100D01*
X328400D02*
X329800D01*
X331100D02*
X336500D01*
X339200D02*
X340600D01*
X310800Y135600D02*
X320300D01*
X321600D02*
X324400D01*
X323000Y139200D02*
X329800D01*
X331100D02*
X332500D01*
X323000Y138400D02*
X329800D01*
X331100D02*
X332500D01*
X335100D02*
X336500D01*
X337800D02*
X340600D01*
X341900D02*
X343300D01*
X345900D02*
X347300D01*
X323000Y139600D02*
X329800D01*
X331100Y138500D02*
X332500D01*
X335100D02*
X336500D01*
X337800D02*
X340600D01*
X341900D02*
X343300D01*
X345900D02*
X347300D01*
X325700Y145300D02*
X327100D01*
X331100Y138600D02*
X332500D01*
X335100D02*
X336500D01*
X337800D02*
X340600D01*
X341900D02*
X343300D01*
X345900D02*
X347300D01*
X325700Y145400D02*
X327100D01*
X331100Y138700D02*
X332500D01*
X335100D02*
X336500D01*
X337800D02*
X340600D01*
X341900D02*
X343300D01*
X345900D02*
X347300D01*
X325700Y145500D02*
X327100D01*
X306900Y139200D02*
X313600D01*
X314900D02*
X316300D01*
X317600D02*
X321700D01*
X314900Y145400D02*
X317600D01*
X314900Y145800D02*
X317600D01*
X306900Y139500D02*
X313600D01*
X325700Y145800D02*
X327100D01*
X325700Y145900D02*
X327100D01*
X328400Y145800D02*
X329800D01*
X321600D02*
X324400D01*
X310800Y136600D02*
X320300D01*
X321600D02*
X324400D01*
X321600Y136700D02*
X324400D01*
X308100Y136600D02*
X309500D01*
X331100Y136200D02*
X332500D01*
X333800D02*
X337900D01*
X340500D02*
X344600D01*
X345900D02*
X348700D01*
X333800Y136600D02*
X337900D01*
X333800Y136900D02*
X337900D01*
X350000Y136200D02*
X351400D01*
X308100D02*
X309500D01*
X310800D02*
X320300D01*
X321600D02*
X324400D01*
X333800Y136300D02*
X337900D01*
X340500D02*
X344600D01*
X345900D02*
X348700D01*
X350000D02*
X351400D01*
X308100Y136400D02*
X309500D01*
X310800D02*
X320300D01*
X321600D02*
X324400D01*
X339200Y136900D02*
X351400D01*
X333800Y136400D02*
X337900D01*
X340500D02*
X344600D01*
X345900D02*
X348700D01*
X350000D02*
X351400D01*
X308100Y136500D02*
X309500D01*
X310800D02*
X320300D01*
X321600D02*
X324400D01*
X340500Y136600D02*
X344600D01*
X333800Y136500D02*
X337900D01*
X340500D02*
X344600D01*
X345900D02*
X348700D01*
X350000D02*
X351400D01*
X308100Y136700D02*
X309500D01*
X310800D02*
X320300D01*
X321600Y136900D02*
X324300D01*
X306900D02*
X309500D01*
X333800Y136700D02*
X337900D01*
X340500D02*
X344600D01*
X345900D02*
X348700D01*
X350000D02*
X351400D01*
X345900Y136600D02*
X348700D01*
X343200Y137100D02*
X350000D01*
X343200Y137300D02*
X350000D01*
X343200Y137500D02*
X350000D01*
X343200Y137700D02*
X350000D01*
X343200Y137800D02*
X350000D01*
X343200Y138000D02*
X350000D01*
Y136600D02*
X351400D01*
X321600Y137800D02*
X323000D01*
X325700D02*
X332500D01*
X335100D02*
X336500D01*
X339200D02*
X341900D01*
X350000Y138700D02*
X351400D01*
X306900Y138100D02*
X308100D01*
X316200D02*
X319000D01*
X321600D02*
X323000D01*
X325700D02*
X332500D01*
X335100D02*
X336500D01*
X339200D02*
X341900D01*
X343200D02*
X350000D01*
X316200Y138200D02*
X319000D01*
X321600D02*
X323000D01*
X306900D02*
X308100D01*
X325700Y138000D02*
X332500D01*
X335100D02*
X336500D01*
X339200D02*
X341900D01*
X350000Y138900D02*
X351400D01*
X306900Y138300D02*
X313600D01*
X314900D02*
X316300D01*
X317600D02*
X321700D01*
X323000D02*
X329800D01*
X331100D02*
X332500D01*
X335100D02*
X336500D01*
X337800D02*
X340600D01*
X341900D02*
X343300D01*
X345900D02*
X347300D01*
X350000D02*
X351400D01*
X314900Y138400D02*
X316300D01*
X317600D02*
X321700D01*
X306900D02*
X313600D01*
X314900Y138500D02*
X316300D01*
X317600D02*
X321700D01*
X323000D02*
X329800D01*
X306900D02*
X313600D01*
X314900Y138600D02*
X316300D01*
X317600D02*
X321700D01*
X323000D02*
X329800D01*
X306900D02*
X313600D01*
X314900Y138700D02*
X316300D01*
X317600D02*
X321700D01*
X323000D02*
X329800D01*
X306900D02*
X313600D01*
X323000Y139100D02*
X329800D01*
X331100D02*
X332500D01*
X335100D02*
X336500D01*
X317600D02*
X321700D01*
X325700Y138200D02*
X332500D01*
X335100D02*
X336500D01*
X339200D02*
X341900D01*
X350000Y139100D02*
X351400D01*
X306900Y137800D02*
X308100D01*
X316200D02*
X319000D01*
X306900Y137900D02*
X308100D01*
X316200D02*
X319000D01*
X321600D02*
X323000D01*
X325700D02*
X332500D01*
X335100D02*
X336500D01*
X339200D02*
X341900D01*
X343200D02*
X350000D01*
X316200Y138000D02*
X319000D01*
X321600D02*
X323000D01*
X306900D02*
X308100D01*
Y136800D02*
X309500D01*
X310800D02*
X320300D01*
X321600D02*
X324400D01*
X331100D02*
X332500D01*
X333800D02*
X337900D01*
X340500D02*
X344600D01*
X345900D02*
X348700D01*
X310800Y136900D02*
X320300D01*
X325700D02*
X332500D01*
X350000Y136800D02*
X351400D01*
X306900Y137000D02*
X308100D01*
X316200D02*
X319000D01*
X321600D02*
X323000D01*
X325700D02*
X332500D01*
X335100D02*
X336500D01*
X339200D02*
X341900D01*
X343200D02*
X350000D01*
X316200Y137100D02*
X319000D01*
X321600D02*
X323000D01*
X306900D02*
X308100D01*
X306900Y137200D02*
X308100D01*
X316200D02*
X319000D01*
X321600D02*
X323000D01*
X325700D02*
X332500D01*
X335100D02*
X336500D01*
X339200D02*
X341900D01*
X343200D02*
X350000D01*
X316200Y137300D02*
X319000D01*
X321600D02*
X323000D01*
X306900D02*
X308100D01*
X325700Y137100D02*
X332500D01*
X335100D02*
X336500D01*
X339200D02*
X341900D01*
X345900Y139100D02*
X347300D01*
X306900Y137400D02*
X308100D01*
X316200D02*
X319000D01*
X321600D02*
X323000D01*
X325700D02*
X332500D01*
X335100D02*
X336500D01*
X339200D02*
X341900D01*
X343200D02*
X350000D01*
X316200Y137500D02*
X319000D01*
X321600D02*
X323000D01*
X306900D02*
X308100D01*
X325700Y137300D02*
X332500D01*
X335100D02*
X336500D01*
X339200D02*
X341900D01*
X350000Y138400D02*
X351400D01*
X306900Y137600D02*
X308100D01*
X316200D02*
X319000D01*
X321600D02*
X323000D01*
X325700D02*
X332500D01*
X335100D02*
X336500D01*
X339200D02*
X341900D01*
X343200D02*
X350000D01*
X316200Y137700D02*
X319000D01*
X321600D02*
X323000D01*
X306900D02*
X308100D01*
X325700Y137500D02*
X332500D01*
X335100D02*
X336500D01*
X339200D02*
X341900D01*
X350000Y138500D02*
X351400D01*
X325700Y137700D02*
X332500D01*
X335100D02*
X336500D01*
X339200D02*
X341900D01*
X350000Y138600D02*
X351400D01*
X337800Y139100D02*
X340600D01*
X341900D02*
X343300D01*
X335100Y139200D02*
X336500D01*
X343200Y138200D02*
X350000D01*
X306900Y138800D02*
X313600D01*
X314900D02*
X316300D01*
X317600D02*
X321700D01*
X323000D02*
X329800D01*
X331100D02*
X332500D01*
X335100D02*
X336500D01*
X337800D02*
X340600D01*
X341900D02*
X343300D01*
X345900D02*
X347300D01*
X350000D02*
X351400D01*
X314900Y138900D02*
X316300D01*
X317600D02*
X321700D01*
X306900D02*
X313600D01*
X323000D02*
X329800D01*
X331100D02*
X332500D01*
X335100D02*
X336500D01*
X337800D02*
X340600D01*
X341900D02*
X343300D01*
X345900D02*
X347300D01*
X321600Y145400D02*
X324400D01*
X306900Y139000D02*
X313600D01*
X314900D02*
X316300D01*
X317600D02*
X321700D01*
X323000D02*
X329800D01*
X331100D02*
X332500D01*
X335100D02*
X336500D01*
X337800D02*
X340600D01*
X341900D02*
X343300D01*
X345900D02*
X347300D01*
X350000D02*
X351400D01*
X314900Y139100D02*
X316300D01*
X306900D02*
X313600D01*
X306900Y139600D02*
X313500D01*
X314900D02*
X316200D01*
X306900Y145000D02*
X313500D01*
X306900Y144900D02*
X308100D01*
X306900Y139300D02*
X313600D01*
X314900D02*
X316300D01*
X317600D02*
X321700D01*
X323000D02*
X329800D01*
X331100D02*
X332500D01*
X335100D02*
X336500D01*
X337800D02*
X340600D01*
X341900D02*
X343300D01*
X345900D02*
X347300D01*
X306900Y139400D02*
X313600D01*
X350000Y139300D02*
X351400D01*
X314900Y139400D02*
X316300D01*
X317600D02*
X321700D01*
X323000D02*
X329800D01*
X331100D02*
X332500D01*
X335100D02*
X336500D01*
X337800D02*
X340600D01*
X341900D02*
X343300D01*
X345900D02*
X347300D01*
X314900Y139500D02*
X316300D01*
X317600Y139600D02*
X321600D01*
X350000Y139400D02*
X351400D01*
X317600Y139500D02*
X321700D01*
X323000D02*
X329800D01*
X331100D02*
X332500D01*
X335100D02*
X336500D01*
X306900Y139700D02*
X312200D01*
X317600D02*
X320300D01*
X323000D02*
X327100D01*
X331100D02*
X333800D01*
X335100D02*
X336500D01*
X339200D02*
X341900D01*
X306900Y139800D02*
X312200D01*
X317600D02*
X320300D01*
X323000D02*
X327100D01*
X347300Y139700D02*
X350000D01*
X306900Y139900D02*
X312200D01*
X317600D02*
X320300D01*
X323000D02*
X327100D01*
X331100D02*
X333800D01*
X335100D02*
X336500D01*
X339200D02*
X341900D01*
X306900Y140000D02*
X312200D01*
X317600D02*
X320300D01*
X323000D02*
X327100D01*
X347300Y139900D02*
X350000D01*
X306900Y140100D02*
X312200D01*
X317600D02*
X320300D01*
X323000D02*
X327100D01*
X331100D02*
X333800D01*
X335100D02*
X336500D01*
X339200D02*
X341900D01*
X306900Y140200D02*
X312200D01*
X317600D02*
X320300D01*
X323000D02*
X327100D01*
X347300Y140100D02*
X350000D01*
X306900Y140300D02*
X312200D01*
X317600D02*
X320300D01*
X323000D02*
X327100D01*
X331100D02*
X333800D01*
X335100D02*
X336500D01*
X339200D02*
X341900D01*
X306900Y140400D02*
X312200D01*
X317600D02*
X320300D01*
X323000D02*
X327100D01*
X347300Y140300D02*
X350000D01*
X306900Y140600D02*
X312200D01*
X317600D02*
X320300D01*
X323000D02*
X327100D01*
X331100D02*
X333800D01*
X335100D02*
X336500D01*
X339200D02*
X341900D01*
X306900Y140700D02*
X312200D01*
X317600D02*
X320300D01*
X323000D02*
X327100D01*
X347300Y140600D02*
X350000D01*
X337800Y139200D02*
X340600D01*
X341900D02*
X343300D01*
X345900D02*
X347300D01*
X350000D02*
X351400D01*
X306900Y140800D02*
X312200D01*
X317600D02*
X320300D01*
X323000D02*
X327100D01*
X331100D02*
X333800D01*
X335100D02*
X336500D01*
X339200D02*
X341900D01*
X306900Y140900D02*
X312200D01*
X347300Y140800D02*
X350000D01*
X317600Y140900D02*
X320300D01*
X323000D02*
X327100D01*
X331100D02*
X333800D01*
X335100D02*
X336500D01*
X339200D02*
X341900D01*
X310800Y141000D02*
X312200D01*
X314900D02*
X316300D01*
X347300Y140900D02*
X350000D01*
X317600Y141000D02*
X319000D01*
X321600D02*
X323000D01*
X325700D02*
X328400D01*
X329700D02*
X333800D01*
X335100D02*
X340600D01*
X341900D02*
X344600D01*
X345900D02*
X348700D01*
X350000D02*
X351400D01*
X310800Y141100D02*
X312200D01*
X314900D02*
X316300D01*
X317600D02*
X319000D01*
X321600D02*
X323000D01*
X325700D02*
X328400D01*
X329700D02*
X333800D01*
X335100D02*
X340600D01*
X341900D02*
X344600D01*
X345900D02*
X348700D01*
X310800Y141200D02*
X312200D01*
X314900D02*
X316300D01*
X350000Y141100D02*
X351400D01*
X317600Y141200D02*
X319000D01*
X321600D02*
X323000D01*
X325700D02*
X328400D01*
X329700D02*
X333800D01*
X335100D02*
X340600D01*
X341900D02*
X344600D01*
X345900D02*
X348700D01*
X350000D02*
X351400D01*
X310800Y141300D02*
X312200D01*
X314900D02*
X316300D01*
X317600D02*
X319000D01*
X321600D02*
X323000D01*
X325700D02*
X328400D01*
X329700D02*
X333800D01*
X335100D02*
X340600D01*
X341900D02*
X344600D01*
X345900D02*
X348700D01*
X310800Y141400D02*
X312200D01*
X314900D02*
X316300D01*
X350000Y141300D02*
X351400D01*
X317600Y141400D02*
X319000D01*
X321600D02*
X323000D01*
X325700D02*
X328400D01*
X329700D02*
X333800D01*
X335100D02*
X340600D01*
X341900D02*
X344600D01*
X345900D02*
X348700D01*
X350000D02*
X351400D01*
X317600Y141500D02*
X319000D01*
X321600D02*
X323000D01*
X325700D02*
X328400D01*
X329700D02*
X333800D01*
X310800Y141600D02*
X312200D01*
X314900D02*
X316300D01*
X317600D02*
X319000D01*
X321600D02*
X323000D01*
X325700D02*
X328400D01*
X329700D02*
X333800D01*
X335100D02*
X340600D01*
X341900D02*
X344600D01*
X345900D02*
X348700D01*
X310800Y141700D02*
X312200D01*
X314900D02*
X316300D01*
X350000Y141600D02*
X351400D01*
X306900Y140500D02*
X312200D01*
X317600D02*
X320300D01*
X323000D02*
X327100D01*
X331100D02*
X333800D01*
X335100D02*
X336500D01*
X339200D02*
X341900D01*
X347300D02*
X350000D01*
X317600Y141700D02*
X319000D01*
X321600D02*
X323000D01*
X325700D02*
X328400D01*
X329700D02*
X333800D01*
X335100D02*
X340600D01*
X341900D02*
X344600D01*
X345900D02*
X348700D01*
X350000D02*
X351400D01*
X310800Y141800D02*
X312200D01*
X314900D02*
X316300D01*
X317600D02*
X319000D01*
X321600D02*
X323000D01*
X325700D02*
X328400D01*
X329700D02*
X333800D01*
X335100D02*
X340600D01*
X341900D02*
X344600D01*
X345900D02*
X348700D01*
X310800Y141900D02*
X312200D01*
X314900D02*
X316300D01*
X350000Y141800D02*
X351400D01*
X317600Y141900D02*
X319000D01*
X321600D02*
X323000D01*
X325700D02*
X328400D01*
X329700D02*
X333800D01*
X335100D02*
X340600D01*
X341900D02*
X344600D01*
X345900D02*
X348700D01*
X350000D02*
X351400D01*
X310800Y142000D02*
X312200D01*
X314900D02*
X316300D01*
X317600D02*
X319000D01*
X321600D02*
X323000D01*
X325700D02*
X328400D01*
X329700D02*
X333800D01*
X335100D02*
X340600D01*
X341900D02*
X344600D01*
X345900D02*
X348700D01*
X310800Y142100D02*
X312200D01*
X314900D02*
X316300D01*
X350000Y142000D02*
X351400D01*
X317600Y142100D02*
X319000D01*
X321600D02*
X323000D01*
X325700D02*
X328400D01*
X329700D02*
X333800D01*
X335100D02*
X340600D01*
X341900D02*
X344600D01*
X345900D02*
X348700D01*
X350000D02*
X351400D01*
X310800Y142200D02*
X312200D01*
X314900D02*
X316300D01*
X317600D02*
X319000D01*
X321600D02*
X323000D01*
X325700D02*
X328400D01*
X329700D02*
X333800D01*
X335100D02*
X340600D01*
X341900D02*
X344600D01*
X345900D02*
X348700D01*
X310800Y142300D02*
X316200D01*
X350000Y142200D02*
X351400D01*
X317600Y142300D02*
X318900D01*
X320300D02*
X333800D01*
X335100D02*
X340600D01*
X341900D02*
X351400D01*
X312200Y142500D02*
X314900D01*
X320300D02*
X327100D01*
X328400D02*
X331100D01*
X332400D02*
X333800D01*
X335100D02*
X336500D01*
X337800D02*
X340600D01*
X343200D02*
X346000D01*
X348600D02*
X350000D01*
X310800Y141500D02*
X312200D01*
X314900D02*
X316300D01*
X335100D02*
X340600D01*
X341900D02*
X344600D01*
X345900D02*
X348700D01*
X350000D02*
X351400D01*
X335100Y143200D02*
X336500D01*
X337800D02*
X340600D01*
X343200D02*
X346000D01*
X348600D02*
X350000D01*
X312200Y143300D02*
X314900D01*
X320300D02*
X327100D01*
X328400D02*
X331100D01*
X332400D02*
X333800D01*
X335100D02*
X336500D01*
X337800D02*
X340600D01*
X343200D02*
X346000D01*
X348600D02*
X350000D01*
X312200Y143400D02*
X314900D01*
X320300D02*
X327100D01*
X328400D02*
X331100D01*
X332400D02*
X333800D01*
X335100D02*
X336500D01*
X337800D02*
X340600D01*
X343200D02*
X346000D01*
X348600D02*
X350000D01*
X312200Y143500D02*
X314900D01*
X320300D02*
X327100D01*
X328400D02*
X331100D01*
X332400D02*
X333800D01*
X335100D02*
X336500D01*
X337800D02*
X340600D01*
X343200D02*
X346000D01*
X348600D02*
X350000D01*
X312200Y143600D02*
X314900D01*
X320300D02*
X327100D01*
X328400D02*
X331100D01*
X332400D02*
X333800D01*
X335100D02*
X336500D01*
X337800D02*
X340600D01*
X343200D02*
X346000D01*
X306900Y143700D02*
X308100D01*
X309500D02*
X310800D01*
X312200D02*
X313600D01*
X348600Y143600D02*
X350000D01*
X314900Y143700D02*
X316300D01*
X320300D02*
X327100D01*
X328400D02*
X332500D01*
X335100D02*
X336500D01*
X339200D02*
X340600D01*
X341900D02*
X343300D01*
X344600D02*
X346000D01*
X347300D02*
X348700D01*
X306900Y143900D02*
X308100D01*
X309500D02*
X310800D01*
X312200D02*
X313600D01*
X314900D02*
X316300D01*
X320300D02*
X327100D01*
X328400D02*
X332500D01*
X335100D02*
X336500D01*
X339200D02*
X340600D01*
X341900D02*
X343300D01*
X344600D02*
X346000D01*
X306900Y144000D02*
X308100D01*
X309500D02*
X310800D01*
X312200D02*
X313600D01*
X347300Y143900D02*
X348700D01*
X314900Y144000D02*
X316300D01*
X320300D02*
X327100D01*
X328400D02*
X332500D01*
X335100D02*
X336500D01*
X335100Y143100D02*
X336500D01*
X337800D02*
X340600D01*
X343200D02*
X346000D01*
X348600D02*
X350000D01*
X339200Y144000D02*
X340600D01*
X341900D02*
X343300D01*
X344600D02*
X346000D01*
X347300D02*
X348700D01*
X306900Y144100D02*
X308100D01*
X309500D02*
X310800D01*
X312200D02*
X313600D01*
X314900D02*
X316300D01*
X320300D02*
X327100D01*
X328400D02*
X332500D01*
X335100D02*
X336500D01*
X339200D02*
X340600D01*
X341900D02*
X343300D01*
X344600D02*
X346000D01*
X306900Y144200D02*
X308100D01*
X309500D02*
X310800D01*
X312200D02*
X313600D01*
X347300Y144100D02*
X348700D01*
X314900Y144200D02*
X316300D01*
X320300D02*
X327100D01*
X328400D02*
X332500D01*
X335100D02*
X336500D01*
X339200D02*
X340600D01*
X341900D02*
X343300D01*
X344600D02*
X346000D01*
X347300D02*
X348700D01*
X306900Y144300D02*
X308100D01*
X309500D02*
X310800D01*
X312200D02*
X313600D01*
X314900D02*
X316300D01*
X320300D02*
X327100D01*
X328400D02*
X332500D01*
X335100D02*
X336500D01*
X339200D02*
X340600D01*
X341900D02*
X343300D01*
X344600D02*
X346000D01*
X306900Y144400D02*
X308100D01*
X309500D02*
X310800D01*
X312200D02*
X313600D01*
X347300Y144300D02*
X348700D01*
X314900Y144400D02*
X316300D01*
X320300D02*
X327100D01*
X328400D02*
X332500D01*
X335100D02*
X336500D01*
X339200D02*
X340600D01*
X341900D02*
X343300D01*
X344600D02*
X346000D01*
X347300D02*
X348700D01*
X306900Y144500D02*
X308100D01*
X309500D02*
X310800D01*
X312200D02*
X313600D01*
X314900D02*
X316300D01*
X320300D02*
X327100D01*
X328400D02*
X332500D01*
X335100D02*
X336500D01*
X339200D02*
X340600D01*
X341900D02*
X343300D01*
X344600D02*
X346000D01*
X306900Y144600D02*
X308100D01*
X309500D02*
X310800D01*
X312200D02*
X313600D01*
X347300Y144500D02*
X348700D01*
X314900Y144600D02*
X316300D01*
X320300D02*
X327100D01*
X328400D02*
X332500D01*
X335100D02*
X336500D01*
X339200D02*
X340600D01*
X341900D02*
X343300D01*
X344600D02*
X346000D01*
X347300D02*
X348700D01*
X309500Y144800D02*
X310800D01*
X312200D02*
X313600D01*
X314900D02*
X316300D01*
X320300D02*
X327100D01*
X328400D02*
X332500D01*
X335100D02*
X336500D01*
X339200D02*
X340600D01*
X341900D02*
X343300D01*
X344600D02*
X346000D01*
X309500Y144900D02*
X310800D01*
X312200D02*
X313600D01*
X320300Y145000D02*
X327100D01*
X347300Y144800D02*
X348700D01*
X314900Y144900D02*
X316300D01*
X320300D02*
X327100D01*
X328400D02*
X332500D01*
X335100D02*
X336500D01*
X339200D02*
X340600D01*
X341900D02*
X343300D01*
X344600D02*
X346000D01*
X314900Y145000D02*
X317600D01*
X335100Y145700D02*
X340600D01*
X335100Y145800D02*
X340600D01*
X347300Y144900D02*
X348700D01*
X306900Y143800D02*
X308100D01*
X309500D02*
X310800D01*
X312200D02*
X313600D01*
X314900D02*
X316300D01*
X320300D02*
X327100D01*
X328400D02*
X332500D01*
X335100D02*
X336500D01*
X339200D02*
X340600D01*
X341900D02*
X343300D01*
X344600D02*
X346000D01*
X347300D02*
X348700D01*
X314900Y145100D02*
X317600D01*
X321600D02*
X324400D01*
X325700D02*
X327100D01*
X308100D02*
X312200D01*
X328400Y145000D02*
X332500D01*
X335100D02*
X340600D01*
X341900D02*
X346000D01*
X347300D02*
X351400D01*
X314900Y145200D02*
X317600D01*
X321600D02*
X324400D01*
X325700D02*
X327100D01*
X308100D02*
X312200D01*
X328400Y145100D02*
X329800D01*
X335100D02*
X340600D01*
X343200D02*
X346000D01*
X347300D02*
X351400D01*
X308100Y145300D02*
X312200D01*
X314900D02*
X317600D01*
X321600D02*
X324400D01*
X308100Y145800D02*
X312200D01*
X328400Y145200D02*
X329800D01*
X335100D02*
X340600D01*
X343200D02*
X346000D01*
X347300D02*
X351400D01*
X328400Y145300D02*
X329800D01*
X335100D02*
X340600D01*
X343200D02*
X346000D01*
X347300D02*
X351400D01*
X308100Y145400D02*
X312200D01*
X335100Y146200D02*
X340600D01*
X328400D02*
X329800D01*
X335100Y146300D02*
X340600D01*
X328400Y145400D02*
X329800D01*
X335100D02*
X340600D01*
X343200D02*
X346000D01*
X347300D02*
X351400D01*
X308100Y145500D02*
X312200D01*
X314900D02*
X317600D01*
X321600D02*
X324400D01*
X343200Y145700D02*
X346000D01*
X308100Y145600D02*
X312200D01*
X314900D02*
X317600D01*
X321600D02*
X324400D01*
X325700D02*
X327100D01*
X328400D02*
X329800D01*
X335100D02*
X340600D01*
X343200D02*
X346000D01*
X308100Y145700D02*
X312200D01*
X314900D02*
X317600D01*
X347300Y145600D02*
X351400D01*
X321600Y145700D02*
X324400D01*
X325700D02*
X327100D01*
X328400D02*
X329800D01*
X347300D02*
X351400D01*
X306900Y144700D02*
X308100D01*
X309500D02*
X310800D01*
X312200D02*
X313600D01*
X314900D02*
X316300D01*
X320300D02*
X327100D01*
X328400D02*
X332500D01*
X335100D02*
X336500D01*
X339200D02*
X340600D01*
X341900D02*
X343300D01*
X344600D02*
X346000D01*
X306900Y144800D02*
X308100D01*
X347300Y144700D02*
X348700D01*
X312200Y142600D02*
X314900D01*
X320300D02*
X327100D01*
X328400D02*
X331100D01*
X332400D02*
X333800D01*
X335100D02*
X336500D01*
X337800D02*
X340600D01*
X343200D02*
X346000D01*
X348600D02*
X350000D01*
X312200Y142700D02*
X314900D01*
X320300D02*
X327100D01*
X328400D02*
X331100D01*
X332400D02*
X333800D01*
X335100D02*
X336500D01*
X337800D02*
X340600D01*
X343200D02*
X346000D01*
X348600D02*
X350000D01*
X312200Y142800D02*
X314900D01*
X320300D02*
X327100D01*
X328400D02*
X331100D01*
X332400D02*
X333800D01*
X335100D02*
X336500D01*
X337800D02*
X340600D01*
X343200D02*
X346000D01*
X348600D02*
X350000D01*
X312200Y142900D02*
X314900D01*
X320300D02*
X327100D01*
X328400D02*
X331100D01*
X332400D02*
X333800D01*
X335100D02*
X336500D01*
X337800D02*
X340600D01*
X343200D02*
X346000D01*
X348600D02*
X350000D01*
X312200Y143000D02*
X314900D01*
X320300D02*
X327100D01*
X328400D02*
X331100D01*
X332400D02*
X333800D01*
X335100D02*
X336500D01*
X337800D02*
X340600D01*
X343200D02*
X346000D01*
X348600D02*
X350000D01*
X312200Y143100D02*
X314900D01*
X320300D02*
X327100D01*
X328400D02*
X331100D01*
X332400D02*
X333800D01*
X312200Y143200D02*
X314900D01*
X320300D02*
X327100D01*
X328400D02*
X331100D01*
X332400D02*
X333800D01*
X312200Y142400D02*
X314900D01*
X320300D02*
X327100D01*
X328400D02*
X331100D01*
X332400D02*
X333800D01*
X335100D02*
X336500D01*
X337800D02*
X340600D01*
X343200D02*
X346000D01*
X348600D02*
X350000D01*
X343200Y145800D02*
X346000D01*
X343200Y146200D02*
X346000D01*
X343200Y146300D02*
X346000D01*
X347300Y145800D02*
X351400D01*
X336500Y146400D02*
X337900D01*
X339200D02*
X340600D01*
X341900D02*
X344600D01*
X345900Y147000D02*
X348700D01*
X336500Y146500D02*
X337900D01*
X339200D02*
X340600D01*
X341900D02*
X344600D01*
X345900Y147100D02*
X348700D01*
X336500Y146600D02*
X337900D01*
X339200D02*
X340600D01*
X341900D02*
X344600D01*
X345900Y147200D02*
X348700D01*
X336500Y146700D02*
X337900D01*
X339200D02*
X340600D01*
X341900D02*
X344600D01*
X345900Y147300D02*
X348700D01*
X336500Y146800D02*
X337900D01*
X339200D02*
X340600D01*
X341900D02*
X344600D01*
X345900Y147400D02*
X348700D01*
X336500Y146900D02*
X337900D01*
X339200D02*
X340600D01*
X341900D02*
X344600D01*
X345900Y147500D02*
X348700D01*
X336500Y147000D02*
X337900D01*
X339200D02*
X340600D01*
X341900D02*
X344600D01*
X345900Y147600D02*
X348700D01*
X336500Y147100D02*
X337900D01*
X339200D02*
X340600D01*
X341900D02*
X344600D01*
X348600Y147800D02*
X350000D01*
X336500Y147200D02*
X337900D01*
X339200D02*
X340600D01*
X341900D02*
X344600D01*
X348600Y148000D02*
X350000D01*
X336500Y147300D02*
X337900D01*
X339200D02*
X340600D01*
X341900D02*
X344600D01*
X348600Y148200D02*
X350000D01*
X345900Y146400D02*
X348700D01*
X345900Y146500D02*
X348700D01*
X345900Y146600D02*
X348700D01*
X345900Y146700D02*
X348700D01*
X345900Y146800D02*
X348700D01*
X345900Y146900D02*
X348700D01*
X347300Y146300D02*
X351400D01*
X328400Y145500D02*
X329800D01*
X335100D02*
X340600D01*
X343200D02*
X346000D01*
X347300D02*
X351400D01*
X328400Y145900D02*
X329800D01*
X335100D02*
X340600D01*
X343200D02*
X346000D01*
X347300D02*
X351400D01*
X314900Y146000D02*
X317600D01*
X321600D02*
X324400D01*
X325700D02*
X327100D01*
X347300D02*
X351400D01*
X328400D02*
X329800D01*
X335100D02*
X340600D01*
X343200D02*
X346000D01*
X347300Y146100D02*
X351400D01*
X308100Y145900D02*
X312200D01*
X314900D02*
X317600D01*
X321600D02*
X324400D01*
X308100Y146000D02*
X312200D01*
X314900Y146300D02*
X317600D01*
X321600D02*
X324400D01*
X325700D02*
X327100D01*
X328400D02*
X329800D01*
X308100D02*
X312200D01*
X308100Y146100D02*
X312200D01*
X314900D02*
X317600D01*
X321600D02*
X324400D01*
X325700D02*
X327100D01*
X328400D02*
X329800D01*
X335100D02*
X340600D01*
X343200D02*
X346000D01*
X347300Y146200D02*
X351400D01*
X313500Y146400D02*
X317600D01*
X320300D02*
X328400D01*
X332400D02*
X335200D01*
X309500D02*
X310800D01*
X313500Y146500D02*
X317600D01*
X320300D02*
X328400D01*
X332400D02*
X335200D01*
X309500D02*
X310800D01*
X314900Y146200D02*
X317600D01*
X321600D02*
X324400D01*
X325700D02*
X327100D01*
X308100D02*
X312200D01*
X313500Y146600D02*
X317600D01*
X320300D02*
X328400D01*
X332400D02*
X335200D01*
X309500D02*
X310800D01*
X313500Y146700D02*
X317600D01*
X320300D02*
X328400D01*
X332400D02*
X335200D01*
X309500D02*
X310800D01*
X313500Y146800D02*
X317600D01*
X320300D02*
X328400D01*
X332400D02*
X335200D01*
X309500D02*
X310800D01*
X313500Y146900D02*
X317600D01*
X320300D02*
X328400D01*
X332400D02*
X335200D01*
X309500D02*
X310800D01*
X313500Y147000D02*
X317600D01*
X320300D02*
X328400D01*
X332400D02*
X335200D01*
X309500D02*
X310800D01*
X313500Y147100D02*
X317600D01*
X320300D02*
X328400D01*
X332400D02*
X335200D01*
X309500D02*
X310800D01*
X313500Y147200D02*
X317600D01*
X320300D02*
X328400D01*
X332400D02*
X335200D01*
X309500D02*
X310800D01*
X313500Y147300D02*
X317600D01*
X320300D02*
X328400D01*
X332400D02*
X335200D01*
X309500D02*
X310800D01*
X313500Y147400D02*
X317600D01*
X320300D02*
X328400D01*
X332400D02*
X335200D01*
X309500D02*
X310800D01*
X313500Y147500D02*
X317600D01*
X320300D02*
X328400D01*
X332400D02*
X335200D01*
X309500D02*
X310800D01*
X313500Y147600D02*
X317600D01*
X320300D02*
X328400D01*
X332400D02*
X335200D01*
X309500D02*
X310800D01*
X306900Y147700D02*
X310900D01*
X312200D02*
X317600D01*
X320300D02*
X328400D01*
X329700D02*
X335200D01*
X336500D02*
X344600D01*
X345900D02*
X350000D01*
X306900Y147800D02*
X310800D01*
X316200D02*
X317600D01*
X320300D02*
X324400D01*
X327000D02*
X328400D01*
X312200D02*
X313600D01*
X306900Y147900D02*
X310800D01*
X312200D02*
X313600D01*
X316200D02*
X317600D01*
X320300D02*
X324400D01*
X327000D02*
X328400D01*
X329700D02*
X332500D01*
X333800D02*
X335200D01*
X336500D02*
X341900D01*
X348600D02*
X350000D01*
X306900Y148000D02*
X310800D01*
X316200D02*
X317600D01*
X320300D02*
X324400D01*
X327000D02*
X328400D01*
X312200D02*
X313600D01*
X306900Y148100D02*
X310800D01*
X312200D02*
X313600D01*
X316200D02*
X317600D01*
X320300D02*
X324400D01*
X327000D02*
X328400D01*
X329700D02*
X332500D01*
X333800D02*
X335200D01*
X336500D02*
X341900D01*
X348600D02*
X350000D01*
X306900Y148200D02*
X310800D01*
X316200D02*
X317600D01*
X320300D02*
X324400D01*
X327000D02*
X328400D01*
X312200D02*
X313600D01*
X306900Y148300D02*
X310800D01*
X312200D02*
X313600D01*
X316200D02*
X317600D01*
X320300D02*
X324400D01*
X327000D02*
X328400D01*
X329700D02*
X332500D01*
X333800D02*
X335200D01*
X336500D02*
X341900D01*
X348600D02*
X350000D01*
X306900Y148400D02*
X310800D01*
X316200D02*
X317600D01*
X320300D02*
X324400D01*
X327000D02*
X328400D01*
X312200D02*
X313600D01*
X331100Y139600D02*
X333800D01*
X335100D02*
X336500D01*
X337800D02*
X343300D01*
X345900D02*
X351400D01*
X331100Y139800D02*
X333800D01*
X335100D02*
X336500D01*
X339200D02*
X341900D01*
X347300D02*
X350000D01*
X331100Y140000D02*
X333800D01*
X335100D02*
X336500D01*
X339200D02*
X341900D01*
X347300D02*
X350000D01*
X331100Y140200D02*
X333800D01*
X335100D02*
X336500D01*
X339200D02*
X341900D01*
X347300D02*
X350000D01*
X331100Y140400D02*
X333800D01*
X335100D02*
X336500D01*
X339200D02*
X341900D01*
X347300D02*
X350000D01*
X331100Y140700D02*
X333800D01*
X335100D02*
X336500D01*
X339200D02*
X341900D01*
X347300D02*
X350000D01*
X335100Y149700D02*
X337900D01*
X339200D02*
X340600D01*
X332400Y149800D02*
X333800D01*
X335100Y150000D02*
X337900D01*
X329700Y149800D02*
X331100D01*
X341900Y149700D02*
X344600D01*
X337800Y139500D02*
X340600D01*
X341900D02*
X343300D01*
X345900D02*
X347300D01*
X350000D02*
X351400D01*
X336500Y147400D02*
X337900D01*
X339200D02*
X340600D01*
X341900D02*
X344600D01*
X348600Y148400D02*
X350000D01*
X336500Y147500D02*
X337900D01*
X339200D02*
X340600D01*
X341900D02*
X344600D01*
X348600Y148600D02*
X350000D01*
X329700Y147800D02*
X332500D01*
X333800D02*
X335200D01*
X336500D02*
X341900D01*
X348600Y148900D02*
X350000D01*
X329700Y148000D02*
X332500D01*
X333800D02*
X335200D01*
X336500D02*
X341900D01*
X350000Y149100D02*
X351400D01*
X336500Y147600D02*
X337900D01*
X339200D02*
X340600D01*
X341900D02*
X344600D01*
X348600Y148700D02*
X350000D01*
X306900Y148500D02*
X310800D01*
X312200D02*
X313600D01*
X316200D02*
X317600D01*
X320300D02*
X324400D01*
X327000D02*
X328400D01*
X329700D02*
X332500D01*
X333800D02*
X335200D01*
X336500D02*
X341900D01*
X348600D02*
X350000D01*
X306900Y148600D02*
X310800D01*
X306900Y149600D02*
X309500D01*
X317600D02*
X319000D01*
X321600D02*
X325700D01*
X329700D02*
X331100D01*
X332400D02*
X333800D01*
X335100D02*
X337900D01*
X339200D02*
X340600D01*
X341900D02*
X344600D01*
X350000D02*
X351400D01*
X306900Y149700D02*
X309500D01*
X321600D02*
X325700D01*
X329700D02*
X331100D01*
X332400D02*
X333800D01*
X317600D02*
X319000D01*
X316200Y148600D02*
X317600D01*
X320300D02*
X324400D01*
X327000D02*
X328400D01*
X312200D02*
X313600D01*
X327000Y148700D02*
X328400D01*
X329700D02*
X332500D01*
X333800D02*
X335200D01*
X336500D02*
X341900D01*
X328400Y150600D02*
X329800D01*
X306900Y148800D02*
X310800D01*
X312200D02*
X313600D01*
X316200D02*
X317600D01*
X320300D02*
X324400D01*
X327000D02*
X328400D01*
X329700D02*
X332500D01*
X333800D02*
X335200D01*
X336500D02*
X341900D01*
X348600D02*
X350000D01*
X306900Y148900D02*
X310800D01*
X329700D02*
X332500D01*
X333800D02*
X335200D01*
X336500D02*
X341900D01*
X328400Y150900D02*
X329800D01*
X306900Y148700D02*
X310800D01*
X312200D02*
X313600D01*
X316200D02*
X317600D01*
X320300D02*
X324400D01*
X316200Y148900D02*
X317600D01*
X320300D02*
X324400D01*
X327000D02*
X328400D01*
X312200D02*
X313600D01*
X306900Y149000D02*
X310800D01*
X312200D02*
X313600D01*
X316200D02*
X317600D01*
X320300D02*
X324400D01*
X327000D02*
X328400D01*
X329700D02*
X332500D01*
X333800D02*
X335200D01*
X336500D02*
X341900D01*
X348600D02*
X350000D01*
X317600Y149100D02*
X319000D01*
X321600D02*
X325700D01*
X306900D02*
X309500D01*
X329700D02*
X331100D01*
X332400D02*
X333800D01*
X335100D02*
X337900D01*
X339200D02*
X340600D01*
X341900D02*
X344600D01*
X328400Y151100D02*
X329800D01*
X306900Y149200D02*
X309500D01*
X317600D02*
X319000D01*
X321600D02*
X325700D01*
X329700D02*
X331100D01*
X332400D02*
X333800D01*
X335100D02*
X337900D01*
X339200D02*
X340600D01*
X341900D02*
X344600D01*
X350000D02*
X351400D01*
X317600Y149300D02*
X319000D01*
X321600D02*
X325700D01*
X306900D02*
X309500D01*
X306900Y149800D02*
X309500D01*
X317600D02*
X319000D01*
X321600D02*
X325700D01*
X317600Y150100D02*
X319000D01*
X306900D02*
X309500D01*
X329700Y148200D02*
X332500D01*
X333800D02*
X335200D01*
X336500D02*
X341900D01*
X350000Y149300D02*
X351400D01*
X329700Y148400D02*
X332500D01*
X333800D02*
X335200D01*
X336500D02*
X341900D01*
X350000Y149500D02*
X351400D01*
X329700Y149300D02*
X331100D01*
X332400D02*
X333800D01*
X335100D02*
X337900D01*
X339200D02*
X340600D01*
X341900D02*
X344600D01*
X328400Y151200D02*
X329800D01*
X329700Y149500D02*
X331100D01*
X332400D02*
X333800D01*
X335100D02*
X337900D01*
X339200D02*
X340600D01*
X341900D02*
X344600D01*
X328400Y151400D02*
X329800D01*
X328400Y151500D02*
X329800D01*
X328400Y151600D02*
X329800D01*
X331100Y151500D02*
X335200D01*
X323000Y151600D02*
X325700D01*
X329700Y148600D02*
X332500D01*
X333800D02*
X335200D01*
X336500D02*
X341900D01*
X350000Y149700D02*
X351400D01*
X321600Y150000D02*
X325700D01*
X329700D02*
X331100D01*
X332400D02*
X333800D01*
X341900Y150100D02*
X344600D01*
X321600D02*
X325700D01*
X329700D02*
X331100D01*
X332400D02*
X333800D01*
X350000D02*
X351400D01*
X321600Y150300D02*
X325700D01*
X329700D02*
X331100D01*
X332400D02*
X333800D01*
X335100D02*
X337900D01*
X339200D02*
X340600D01*
X341900D02*
X344600D01*
X321600Y161400D02*
X323000D01*
X321600Y150400D02*
X325700D01*
X328400D02*
X340600D01*
X341900D02*
X347300D01*
X321600Y161600D02*
X323000D01*
X335100Y150100D02*
X337900D01*
X348600Y150400D02*
X351400D01*
X348600Y150600D02*
X350000D01*
Y150300D02*
X351400D01*
X335100Y149800D02*
X337900D01*
X339200D02*
X340600D01*
X341900D02*
X344600D01*
X350000D02*
X351400D01*
X339200Y150000D02*
X340600D01*
X341900D02*
X344600D01*
X339200Y150100D02*
X340600D01*
X350000Y150000D02*
X351400D01*
X306900Y149400D02*
X309500D01*
X317600D02*
X319000D01*
X321600D02*
X325700D01*
X329700D02*
X331100D01*
X332400D02*
X333800D01*
X335100D02*
X337900D01*
X339200D02*
X340600D01*
X341900D02*
X344600D01*
X350000D02*
X351400D01*
X317600Y149500D02*
X319000D01*
X321600D02*
X325700D01*
X306900D02*
X309500D01*
X306900Y149900D02*
X309500D01*
X317600D02*
X319000D01*
X321600D02*
X325700D01*
X329700D02*
X331100D01*
X332400D02*
X333800D01*
X335100D02*
X337900D01*
X339200D02*
X340600D01*
X341900D02*
X344600D01*
X306900Y150000D02*
X309500D01*
X317600D02*
X319000D01*
X350000Y149900D02*
X351400D01*
X306900Y150200D02*
X309500D01*
X317600D02*
X319000D01*
X321600D02*
X325700D01*
X329700D02*
X331100D01*
X332400D02*
X333800D01*
X335100D02*
X337900D01*
X339200D02*
X340600D01*
X341900D02*
X344600D01*
X350000D02*
X351400D01*
X317600Y150300D02*
X319000D01*
X306900D02*
X309500D01*
X312200Y150400D02*
X313600D01*
X314900D02*
X316300D01*
X317600D02*
X319000D01*
X306900D02*
X310800D01*
X314900Y150600D02*
X316300D01*
X323000D02*
X325700D01*
X314900Y151600D02*
X316300D01*
X312200Y150600D02*
X313600D01*
X306900Y150700D02*
X310800D01*
X312200D02*
X313600D01*
X314900D02*
X316300D01*
X323000D02*
X325700D01*
X328400D02*
X329800D01*
X331100D02*
X335200D01*
X336500D02*
X340600D01*
X343200D02*
X347300D01*
X328400Y150800D02*
X329800D01*
X306900D02*
X310800D01*
X312200D02*
X313600D01*
X314900D02*
X316300D01*
X323000D02*
X325700D01*
X312200Y151600D02*
X313600D01*
X331100Y150600D02*
X335200D01*
X336500D02*
X340600D01*
X343200D02*
X347300D01*
X348600Y150700D02*
X350000D01*
X306900Y150900D02*
X310800D01*
X312200D02*
X313600D01*
X314900D02*
X316300D01*
X323000D02*
X325700D01*
X306900Y151600D02*
X310800D01*
X331100Y150800D02*
X335200D01*
X336500D02*
X340600D01*
X343200D02*
X347300D01*
X348600D02*
X350000D01*
X331100Y150900D02*
X335200D01*
X336500D02*
X340600D01*
X343200D02*
X347300D01*
X348600D02*
X350000D01*
X306900Y151000D02*
X310800D01*
X312200D02*
X313600D01*
X314900D02*
X316300D01*
X323000D02*
X325700D01*
X328400D02*
X329800D01*
X331100D02*
X335200D01*
X336500D02*
X340600D01*
X343200D02*
X347300D01*
X306900Y151100D02*
X310800D01*
X348600Y151000D02*
X350000D01*
X312200Y151100D02*
X313600D01*
X314900D02*
X316300D01*
X323000D02*
X325700D01*
X336500Y151500D02*
X340600D01*
X331100Y151100D02*
X335200D01*
X336500D02*
X340600D01*
X343200D02*
X347300D01*
X348600D02*
X350000D01*
X306900Y150500D02*
X310800D01*
X312200D02*
X313600D01*
X314900D02*
X316300D01*
X323000D02*
X325700D01*
X328400D02*
X329800D01*
X331100D02*
X335200D01*
X336500D02*
X340600D01*
X343200D02*
X347300D01*
X348600D02*
X350000D01*
X306900Y150600D02*
X310800D01*
X306900Y151200D02*
X310800D01*
X312200D02*
X313600D01*
X314900D02*
X316300D01*
X323000D02*
X325700D01*
X343200Y151500D02*
X347300D01*
X306900Y151300D02*
X310800D01*
X312200D02*
X313600D01*
X314900D02*
X316300D01*
X323000D02*
X325700D01*
X328400D02*
X329800D01*
X331100D02*
X335200D01*
X336500D02*
X340600D01*
X343200D02*
X347300D01*
X306900Y151400D02*
X310800D01*
X348600Y151300D02*
X350000D01*
X312200Y151400D02*
X313600D01*
X314900D02*
X316300D01*
X323000D02*
X325700D01*
X348600D02*
X350000D01*
X306900Y151500D02*
X310800D01*
X312200D02*
X313600D01*
X314900D02*
X316300D01*
X323000D02*
X325700D01*
X306900Y154400D02*
X308100D01*
X331100Y151400D02*
X335200D01*
X336500D02*
X340600D01*
X343200D02*
X347300D01*
X348600Y151500D02*
X350000D01*
X331100Y151600D02*
X335200D01*
X336500D02*
X340600D01*
X343200D02*
X347300D01*
X348600D02*
X350000D01*
X306900Y151700D02*
X310800D01*
X312200D02*
X313600D01*
X314900D02*
X316300D01*
X323000D02*
X325700D01*
X328400D02*
X329800D01*
X331100D02*
X335200D01*
X336500D02*
X340600D01*
X343200D02*
X347300D01*
X306900Y151800D02*
X309500D01*
X312200D02*
X313600D01*
X348600Y151700D02*
X350000D01*
X314900Y151800D02*
X319000D01*
X324300D02*
X327100D01*
X331100D02*
X333800D01*
X335100D02*
X351400D01*
X306900Y151900D02*
X309500D01*
X312200D02*
X313600D01*
X314900D02*
X319000D01*
X324300D02*
X327100D01*
X331100D02*
X333800D01*
X306900Y152000D02*
X309500D01*
X312200D02*
X313600D01*
X335100Y151900D02*
X351400D01*
X314900Y152000D02*
X319000D01*
X324300D02*
X327100D01*
X331100D02*
X333800D01*
X335100D02*
X351400D01*
X331100Y151200D02*
X335200D01*
X336500D02*
X340600D01*
X343200D02*
X347300D01*
X348600D02*
X350000D01*
X306900Y153400D02*
X308100D01*
X310800D02*
X312200D01*
X316200D02*
X317600D01*
X325700D02*
X327100D01*
X328400D02*
X333800D01*
X335100D02*
X336500D01*
X306900Y153500D02*
X308100D01*
X310800D02*
X312200D01*
X316200D02*
X317600D01*
X344600Y153400D02*
X347300D01*
X325700Y153500D02*
X327100D01*
X328400D02*
X333800D01*
X335100D02*
X336500D01*
X344600D02*
X347300D01*
X306900Y153600D02*
X308100D01*
X310800D02*
X312200D01*
X316200D02*
X317600D01*
X325700D02*
X327100D01*
X328400D02*
X333800D01*
X335100D02*
X336500D01*
X306900Y153700D02*
X308100D01*
X310800D02*
X312200D01*
X316200D02*
X317600D01*
X344600Y153600D02*
X347300D01*
X325700Y153700D02*
X327100D01*
X328400D02*
X333800D01*
X335100D02*
X336500D01*
X344600D02*
X347300D01*
X306900Y153800D02*
X308100D01*
X310800D02*
X312200D01*
X316200D02*
X317600D01*
X325700D02*
X327100D01*
X328400D02*
X333800D01*
X335100D02*
X336500D01*
X306900Y153900D02*
X308100D01*
X310800D02*
X312200D01*
X316200D02*
X317600D01*
X344600Y153800D02*
X347300D01*
X325700Y153900D02*
X327100D01*
X328400D02*
X333800D01*
X335100D02*
X336500D01*
X344600D02*
X347300D01*
X306900Y154000D02*
X308100D01*
X310800D02*
X312200D01*
X316200D02*
X317600D01*
X325700D02*
X327100D01*
X328400D02*
X333800D01*
X335100D02*
X336500D01*
X306900Y154100D02*
X308100D01*
X310800D02*
X312200D01*
X316200D02*
X317600D01*
X344600Y154000D02*
X347300D01*
X325700Y154100D02*
X327100D01*
X328400D02*
X333800D01*
X335100D02*
X336500D01*
X344600D02*
X347300D01*
X306900Y154200D02*
X308100D01*
X310800D02*
X312200D01*
X316200D02*
X317600D01*
X325700D02*
X327100D01*
X328400D02*
X333800D01*
X335100D02*
X336500D01*
X306900Y154300D02*
X308100D01*
X344600Y154200D02*
X347300D01*
X310800Y154300D02*
X312200D01*
X316200D02*
X317600D01*
X325700D02*
X327100D01*
X328400D02*
X333800D01*
X335100D02*
X336500D01*
X310800Y154400D02*
X312200D01*
X316200D02*
X317600D01*
X323000Y156800D02*
X324400D01*
X344600Y154300D02*
X347300D01*
X325700Y154400D02*
X327100D01*
X328400D02*
X333800D01*
X335100D02*
X336500D01*
X344600D02*
X347300D01*
X306900Y153300D02*
X308100D01*
X310800D02*
X312200D01*
X316200D02*
X317600D01*
X325700D02*
X327100D01*
X328400D02*
X333800D01*
X335100D02*
X336500D01*
X344600D02*
X347300D01*
X306900Y154500D02*
X313600D01*
X321600D02*
X328400D01*
X329700D02*
X331100D01*
X332400D02*
X333800D01*
X335100D02*
X339200D01*
X340500D02*
X346000D01*
X306900Y154600D02*
X313600D01*
X321600D02*
X328400D01*
X329700D02*
X331100D01*
X347300Y154500D02*
X350000D01*
X306900Y154700D02*
X313600D01*
X321600D02*
X328400D01*
X329700D02*
X331100D01*
X332400D02*
X333800D01*
X335100D02*
X339200D01*
X340500D02*
X346000D01*
X306900Y154800D02*
X313600D01*
X321600D02*
X328400D01*
X329700D02*
X331100D01*
X347300Y154700D02*
X350000D01*
X332400Y154800D02*
X333800D01*
X335100D02*
X339200D01*
X340500D02*
X346000D01*
X347300D02*
X350000D01*
X306900Y154900D02*
X313600D01*
X321600D02*
X328400D01*
X329700D02*
X331100D01*
X332400D02*
X333800D01*
X335100D02*
X339200D01*
X340500D02*
X346000D01*
X306900Y155000D02*
X313600D01*
X321600D02*
X328400D01*
X329700D02*
X331100D01*
X347300Y154900D02*
X350000D01*
X332400Y155000D02*
X333800D01*
X335100D02*
X339200D01*
X340500D02*
X346000D01*
X347300D02*
X350000D01*
X306900Y155100D02*
X313600D01*
X321600D02*
X328400D01*
X329700D02*
X331100D01*
X332400D02*
X333800D01*
X335100D02*
X339200D01*
X340500D02*
X346000D01*
X306900Y155200D02*
X313600D01*
X321600D02*
X328400D01*
X329700D02*
X331100D01*
X347300Y155100D02*
X350000D01*
X332400Y155200D02*
X333800D01*
X335100D02*
X339200D01*
X340500D02*
X346000D01*
X347300D02*
X350000D01*
X306900Y155300D02*
X313600D01*
X321600D02*
X328400D01*
X329700D02*
X331100D01*
X332400D02*
X333800D01*
X335100D02*
X339200D01*
X340500D02*
X346000D01*
X306900Y155400D02*
X313600D01*
X321600D02*
X328400D01*
X329700D02*
X331100D01*
X347300Y155300D02*
X350000D01*
X332400Y155400D02*
X333800D01*
X335100D02*
X339200D01*
X340500D02*
X346000D01*
X347300D02*
X350000D01*
X306900Y155500D02*
X313600D01*
X321600D02*
X328400D01*
X329700D02*
X331100D01*
X332400D02*
X333800D01*
X335100D02*
X339200D01*
X340500D02*
X346000D01*
X306900Y155600D02*
X313600D01*
X321600D02*
X328400D01*
X329700D02*
X331100D01*
X347300Y155500D02*
X350000D01*
X332400Y155600D02*
X333800D01*
X335100D02*
X339200D01*
X340500D02*
X346000D01*
X347300D02*
X350000D01*
X332400Y154600D02*
X333800D01*
X335100D02*
X339200D01*
X340500D02*
X346000D01*
X347300D02*
X350000D01*
X306900Y152100D02*
X309500D01*
X312200D02*
X313600D01*
X314900D02*
X319000D01*
X324300D02*
X327100D01*
X331100D02*
X333800D01*
X306900Y152200D02*
X309500D01*
X312200D02*
X313600D01*
X335100Y152100D02*
X351400D01*
X306900Y152300D02*
X309500D01*
X312200D02*
X313600D01*
X314900D02*
X319000D01*
X324300D02*
X327100D01*
X331100D02*
X333800D01*
X306900Y152400D02*
X309500D01*
X312200D02*
X313600D01*
X335100Y152300D02*
X351400D01*
X314900Y152400D02*
X319000D01*
X324300D02*
X327100D01*
X331100D02*
X333800D01*
X335100D02*
X351400D01*
X306900Y152500D02*
X309500D01*
X312200D02*
X313600D01*
X314900D02*
X319000D01*
X324300D02*
X327100D01*
X331100D02*
X333800D01*
X306900Y152600D02*
X309500D01*
X312200D02*
X313600D01*
X335100Y152500D02*
X351400D01*
X314900Y152600D02*
X319000D01*
X324300D02*
X327100D01*
X331100D02*
X333800D01*
X335100D02*
X351400D01*
X306900Y152700D02*
X309500D01*
X312200D02*
X313600D01*
X314900D02*
X319000D01*
X324300D02*
X327100D01*
X331100D02*
X333800D01*
X306900Y152800D02*
X309500D01*
X312200D02*
X313600D01*
X335100Y152700D02*
X351400D01*
X314900Y152800D02*
X319000D01*
X324300D02*
X327100D01*
X331100D02*
X333800D01*
X335100D02*
X351400D01*
X306900Y152900D02*
X309500D01*
X312200D02*
X313600D01*
X314900D02*
X319000D01*
X324300D02*
X327100D01*
X331100D02*
X333800D01*
X306900Y153000D02*
X309500D01*
X312200D02*
X313600D01*
X335100Y152900D02*
X351400D01*
X314900Y153000D02*
X319000D01*
X324300D02*
X327100D01*
X331100D02*
X333800D01*
X335100D02*
X351400D01*
X306900Y153100D02*
X309500D01*
X310800D02*
X313500D01*
X314900D02*
X319000D01*
X324300D02*
X327100D01*
X328400D02*
X333800D01*
X306900Y153200D02*
X308100D01*
X310800D02*
X312200D01*
X316200D02*
X317600D01*
X335100Y153100D02*
X351400D01*
X325700Y153200D02*
X327100D01*
X328400D02*
X333800D01*
X335100D02*
X336500D01*
X344600D02*
X347300D01*
X314900Y152200D02*
X319000D01*
X324300D02*
X327100D01*
X331100D02*
X333800D01*
X335100D02*
X351400D01*
X306900Y156400D02*
X310800D01*
X314900D02*
X316300D01*
X317600D02*
X319000D01*
X323000D02*
X324400D01*
X306900Y156500D02*
X310800D01*
X314900D02*
X316300D01*
X317600D02*
X319000D01*
X323000D02*
X324400D01*
X306900Y156600D02*
X310800D01*
X314900D02*
X316300D01*
X317600D02*
X319000D01*
X323000D02*
X324400D01*
X333800Y156500D02*
X335200D01*
X336500D02*
X337900D01*
X340500D02*
X341900D01*
X344600D02*
X351400D01*
X306900Y156700D02*
X310800D01*
X314900D02*
X316300D01*
X317600D02*
X319000D01*
X323000D02*
X324400D01*
X333800Y156600D02*
X335200D01*
X336500D02*
X337900D01*
X340500D02*
X341900D01*
X344600D02*
X351400D01*
X333800Y156700D02*
X335200D01*
X336500D02*
X337900D01*
X340500D02*
X341900D01*
X344600D02*
X351400D01*
X306900Y156800D02*
X310800D01*
X314900D02*
X316300D01*
X317600D02*
X319000D01*
X340500Y157000D02*
X341900D01*
X333800Y156800D02*
X335200D01*
X336500D02*
X337900D01*
X340500D02*
X341900D01*
X344600D02*
X351400D01*
X306900Y156900D02*
X310800D01*
X314900D02*
X316300D01*
X317600D02*
X319000D01*
X323000D02*
X324400D01*
X333800D02*
X335200D01*
X336500D02*
X337900D01*
X340500D02*
X341900D01*
X306900Y157000D02*
X310800D01*
X314900D02*
X316300D01*
X317600D02*
X319000D01*
X344600Y156900D02*
X351400D01*
X323000Y157000D02*
X324400D01*
X333800D02*
X335200D01*
X336500D02*
X337900D01*
X344600D02*
X351400D01*
X333800Y156400D02*
X335200D01*
X336500D02*
X337900D01*
X340500D02*
X341900D01*
X344600D02*
X351400D01*
X306900Y157100D02*
X310800D01*
X314900D02*
X316300D01*
X317600D02*
X319000D01*
X306900Y157400D02*
X308100D01*
X323000Y157100D02*
X324400D01*
X306900Y157200D02*
X308100D01*
X310800D02*
X312200D01*
X316200D02*
X319000D01*
X321600D02*
X331100D01*
X335100D02*
X336500D01*
X337800D02*
X340600D01*
X341900D02*
X346000D01*
X306900Y157300D02*
X308100D01*
X347300Y157200D02*
X348700D01*
X310800Y157300D02*
X312200D01*
X316200D02*
X319000D01*
X321600D02*
X331100D01*
X335100D02*
X336500D01*
X337800D02*
X340600D01*
X341900D02*
X346000D01*
X310800Y157400D02*
X312200D01*
X316200D02*
X319000D01*
X341900D02*
X346000D01*
X347300Y157300D02*
X348700D01*
X306900Y157500D02*
X308100D01*
X310800D02*
X312200D01*
X316200D02*
X319000D01*
X306900Y157800D02*
X308100D01*
X321600Y157500D02*
X331100D01*
X321600Y157400D02*
X331100D01*
X335100D02*
X336500D01*
X337800D02*
X340600D01*
X347300D02*
X348700D01*
X335100Y157500D02*
X336500D01*
X337800D02*
X340600D01*
X341900D02*
X346000D01*
X347300D02*
X348700D01*
X306900Y157600D02*
X308100D01*
X310800D02*
X312200D01*
X316200D02*
X319000D01*
X321600D02*
X331100D01*
X335100D02*
X336500D01*
X337800D02*
X340600D01*
X341900D02*
X346000D01*
X306900Y157700D02*
X308100D01*
X347300Y157600D02*
X348700D01*
X310800Y157700D02*
X312200D01*
X316200D02*
X319000D01*
X321600D02*
X331100D01*
X335100D02*
X336500D01*
X337800D02*
X340600D01*
X341900D02*
X346000D01*
X310800Y157800D02*
X312200D01*
X316200D02*
X319000D01*
X341900D02*
X346000D01*
X347300Y157700D02*
X348700D01*
X306900Y157900D02*
X308100D01*
X310800D02*
X312200D01*
X316200D02*
X319000D01*
X306900Y158100D02*
X308100D01*
X321600Y157900D02*
X331100D01*
X321600Y157800D02*
X331100D01*
X335100D02*
X336500D01*
X337800D02*
X340600D01*
X347300D02*
X348700D01*
X335100Y157900D02*
X336500D01*
X337800D02*
X340600D01*
X341900D02*
X346000D01*
X347300D02*
X348700D01*
X333800Y157100D02*
X335200D01*
X336500D02*
X337900D01*
X340500D02*
X341900D01*
X344600D02*
X351400D01*
X306900Y158000D02*
X308100D01*
X310800D02*
X312200D01*
X316200D02*
X319000D01*
X321600D02*
X331100D01*
X335100D02*
X336500D01*
X337800D02*
X340600D01*
X341900D02*
X346000D01*
X310800Y158100D02*
X312200D01*
X316200D02*
X319000D01*
X341900D02*
X346000D01*
X347300Y158000D02*
X348700D01*
X306900Y158200D02*
X308100D01*
X310800D02*
X312200D01*
X316200D02*
X319000D01*
X306900Y158500D02*
X308100D01*
X321600Y158200D02*
X331100D01*
X335100D02*
X336500D01*
X337800D02*
X340600D01*
X341900D02*
X346000D01*
X347300D02*
X348700D01*
X306900Y158300D02*
X308100D01*
X310800D02*
X312200D01*
X316200D02*
X319000D01*
X321600D02*
X331100D01*
X335100D02*
X336500D01*
X337800D02*
X340600D01*
X341900D02*
X346000D01*
X306900Y158400D02*
X308100D01*
X347300Y158300D02*
X348700D01*
X310800Y158400D02*
X312200D01*
X316200D02*
X319000D01*
X321600D02*
X331100D01*
X335100D02*
X336500D01*
X337800D02*
X340600D01*
X341900D02*
X346000D01*
X310800Y158500D02*
X312200D01*
X316200D02*
X331100D01*
X321600Y161300D02*
X323000D01*
X347300Y158400D02*
X348700D01*
X332400Y158500D02*
X336500D01*
X337800D02*
X340600D01*
X341900D02*
X346000D01*
X318900Y158600D02*
X324400D01*
X347300Y158500D02*
X348700D01*
X327000Y158600D02*
X328400D01*
X329700D02*
X331100D01*
X332400D02*
X336500D01*
X337800D02*
X339200D01*
X318900Y158700D02*
X324400D01*
X327000D02*
X328400D01*
X329700D02*
X331100D01*
X332400D02*
X336500D01*
X318900Y158800D02*
X324400D01*
X337800Y158700D02*
X339200D01*
X327000Y158800D02*
X328400D01*
X329700D02*
X331100D01*
X332400D02*
X336500D01*
X337800D02*
X339200D01*
X318900Y158900D02*
X324400D01*
X327000D02*
X328400D01*
X329700D02*
X331100D01*
X332400D02*
X336500D01*
X318900Y159000D02*
X324400D01*
X337800Y158900D02*
X339200D01*
X327000Y159000D02*
X328400D01*
X329700D02*
X331100D01*
X332400D02*
X336500D01*
X337800D02*
X339200D01*
X321600Y158100D02*
X331100D01*
X335100D02*
X336500D01*
X337800D02*
X340600D01*
X347300D02*
X348700D01*
X306900Y155700D02*
X313600D01*
X321600D02*
X328400D01*
X329700D02*
X331100D01*
X332400D02*
X333800D01*
X335100D02*
X339200D01*
X340500D02*
X346000D01*
X306900Y155800D02*
X313500D01*
X314900D02*
X316300D01*
X317600D02*
X319000D01*
X347300Y155700D02*
X350000D01*
X306900Y155900D02*
X310800D01*
X314900D02*
X316300D01*
X317600D02*
X319000D01*
X323000D02*
X324400D01*
X306900Y156000D02*
X310800D01*
X314900D02*
X316300D01*
X317600D02*
X319000D01*
X323000D02*
X324400D01*
X333800Y155900D02*
X335200D01*
X336500D02*
X337900D01*
X340500D02*
X341900D01*
X344600D02*
X351400D01*
X306900Y156100D02*
X310800D01*
X314900D02*
X316300D01*
X317600D02*
X319000D01*
X323000D02*
X324400D01*
X333800Y156000D02*
X335200D01*
X336500D02*
X337900D01*
X340500D02*
X341900D01*
X344600D02*
X351400D01*
X306900Y156200D02*
X310800D01*
X314900D02*
X316300D01*
X317600D02*
X319000D01*
X323000D02*
X324400D01*
X333800Y156100D02*
X335200D01*
X336500D02*
X337900D01*
X340500D02*
X341900D01*
X344600D02*
X351400D01*
X306900Y156300D02*
X310800D01*
X314900D02*
X316300D01*
X317600D02*
X319000D01*
X323000D02*
X324400D01*
X333800Y156200D02*
X335200D01*
X336500D02*
X337900D01*
X340500D02*
X341900D01*
X344600D02*
X351400D01*
X333800Y156300D02*
X335200D01*
X336500D02*
X337900D01*
X340500D02*
X341900D01*
X344600D02*
X351400D01*
X321600Y155800D02*
X328400D01*
X329700D02*
X331100D01*
X332400D02*
X339200D01*
X340500D02*
X351400D01*
X318900Y159200D02*
X324400D01*
X327000D02*
X328400D01*
X329700D02*
X331100D01*
X332400D02*
X336500D01*
X318900Y159300D02*
X324400D01*
X337800Y159200D02*
X339200D01*
X327000Y159300D02*
X328400D01*
X329700D02*
X331100D01*
X332400D02*
X336500D01*
X337800D02*
X339200D01*
X318900Y159400D02*
X324400D01*
X327000D02*
X328400D01*
X329700D02*
X331100D01*
X332400D02*
X336500D01*
X318900Y159500D02*
X324400D01*
X337800Y159400D02*
X339200D01*
X327000Y159500D02*
X328400D01*
X329700D02*
X331100D01*
X332400D02*
X336500D01*
X337800D02*
X339200D01*
X318900Y159600D02*
X324400D01*
X327000D02*
X328400D01*
X329700D02*
X331100D01*
X332400D02*
X336500D01*
X318900Y159700D02*
X324400D01*
X337800Y159600D02*
X339200D01*
X327000Y159700D02*
X328400D01*
X329700D02*
X331100D01*
X332400D02*
X336500D01*
X337800D02*
X339200D01*
X318900Y159800D02*
X324400D01*
X327000D02*
X328400D01*
X329700D02*
X331100D01*
X332400D02*
X336500D01*
X309000Y159900D02*
X314300D01*
X317600D02*
X319000D01*
X320300D02*
X321700D01*
X337800Y159800D02*
X339200D01*
X323000Y159900D02*
X324400D01*
X325700D02*
X327100D01*
X328400D02*
X329800D01*
X331100D02*
X332500D01*
X333800D02*
X335200D01*
X336500D02*
X337900D01*
X339200D02*
X340600D01*
X344000D02*
X349300D01*
X307100Y161300D02*
X309700D01*
X313700D02*
X316200D01*
X317600D02*
X320300D01*
X321600Y161700D02*
X323000D01*
X307000Y161400D02*
X309200D01*
X314100D02*
X316300D01*
X317600D02*
X320300D01*
X321600Y161800D02*
X323000D01*
X318900Y159100D02*
X324400D01*
X327000D02*
X328400D01*
X329700D02*
X331100D01*
X332400D02*
X336500D01*
X337800D02*
X339200D01*
X307100Y168100D02*
X316200D01*
X307000Y167800D02*
X309200D01*
X307000Y167700D02*
X309000D01*
X307000Y167600D02*
X308900D01*
X307000Y167500D02*
X308700D01*
X306900Y167200D02*
X308500D01*
X306900Y167000D02*
X308400D01*
X306900Y166500D02*
X308300D01*
X317600Y169200D02*
X323000D01*
X306900Y162300D02*
X308400D01*
X314900D02*
X316400D01*
X317600D02*
X320300D01*
X327000Y169000D02*
X328400D01*
X306900Y162400D02*
X308400D01*
X314900D02*
X316400D01*
X317600D02*
X320300D01*
X327000Y169200D02*
X328400D01*
X306900Y162500D02*
X308400D01*
X314900D02*
X316400D01*
X317600D02*
X320300D01*
X327000Y169300D02*
X328400D01*
X315000Y166500D02*
X316400D01*
X317600D02*
X321700D01*
X325700D02*
X327100D01*
X328400D02*
X329800D01*
X308400Y160000D02*
X314900D01*
X317600D02*
X319000D01*
X320300D02*
X321700D01*
X323000D02*
X324400D01*
X325700D02*
X327100D01*
X328400D02*
X329800D01*
X331100D02*
X332500D01*
X333800D02*
X335200D01*
X336500D02*
X337900D01*
X339200D02*
X340600D01*
X343400D02*
X349900D01*
X308100Y160100D02*
X315200D01*
X317600D02*
X319000D01*
X320300D02*
X321700D01*
X323000D02*
X324400D01*
X325700D02*
X327100D01*
X328400D02*
X329800D01*
X331100D02*
X332500D01*
X333800D02*
X335200D01*
X336500D02*
X337900D01*
X339200D02*
X340600D01*
X307900Y160200D02*
X315400D01*
X317600D02*
X319000D01*
X320300D02*
X321700D01*
X343100Y160100D02*
X350200D01*
X323000Y160200D02*
X324400D01*
X325700D02*
X327100D01*
X328400D02*
X329800D01*
X331100D02*
X332500D01*
X333800D02*
X335200D01*
X336500D02*
X337900D01*
X339200D02*
X340600D01*
X342900D02*
X350400D01*
X307800Y160300D02*
X315500D01*
X317600D02*
X319000D01*
X320300D02*
X321700D01*
X323000D02*
X324400D01*
X325700D02*
X327100D01*
X328400D02*
X329800D01*
X331100D02*
X332500D01*
X333800D02*
X335200D01*
X336500D02*
X337900D01*
X339200D02*
X340600D01*
X307600Y160400D02*
X315700D01*
X317600D02*
X319000D01*
X320300D02*
X321700D01*
X342800Y160300D02*
X350500D01*
X323000Y160400D02*
X324400D01*
X325700D02*
X327100D01*
X328400D02*
X329800D01*
X331100D02*
X332500D01*
X333800D02*
X335200D01*
X336500D02*
X337900D01*
X339200D02*
X340600D01*
X342600D02*
X350700D01*
X307500Y160500D02*
X315800D01*
X317600D02*
X319000D01*
X320300D02*
X321700D01*
X323000D02*
X324400D01*
X325700D02*
X327100D01*
X328400D02*
X329800D01*
X331100D02*
X332500D01*
X333800D02*
X335200D01*
X336500D02*
X337900D01*
X339200D02*
X340600D01*
X307400Y160600D02*
X315900D01*
X317600D02*
X319000D01*
X320300D02*
X321700D01*
X342500Y160500D02*
X350800D01*
X323000Y160600D02*
X324400D01*
X325700D02*
X327100D01*
X328400D02*
X329800D01*
X331100D02*
X332500D01*
X333800D02*
X335200D01*
X336500D02*
X337900D01*
X339200D02*
X340600D01*
X342400D02*
X350900D01*
X307000Y161600D02*
X308900D01*
X314400D02*
X316300D01*
X317600D02*
X320300D01*
X321600Y161900D02*
X323000D01*
X327000Y161600D02*
X329800D01*
X331100D02*
X336500D01*
X342000D02*
X343900D01*
X349400D02*
X351300D01*
X307000Y161700D02*
X308800D01*
X314600D02*
X316300D01*
X317600D02*
X320300D01*
X321600Y162000D02*
X323000D01*
X327000Y161700D02*
X329800D01*
X331100D02*
X336500D01*
X342000D02*
X343800D01*
X349600D02*
X351300D01*
X307000Y161800D02*
X308700D01*
X314600D02*
X316300D01*
X317600D02*
X320300D01*
X321600Y162100D02*
X323000D01*
X327000Y161800D02*
X329800D01*
X331100D02*
X336500D01*
X342000D02*
X343700D01*
X349600D02*
X351300D01*
X307000Y161900D02*
X308600D01*
X314700D02*
X316400D01*
X317600D02*
X320300D01*
X321600Y162200D02*
X323000D01*
X327000Y161900D02*
X329800D01*
X331100D02*
X336500D01*
X342000D02*
X343600D01*
X349700D02*
X351400D01*
X306900Y162000D02*
X308500D01*
X314800D02*
X316400D01*
X317600D02*
X320300D01*
X321600Y162300D02*
X323000D01*
X327000Y162000D02*
X329800D01*
X331100D02*
X336500D01*
X341900D02*
X343500D01*
X349800D02*
X351400D01*
X306900Y162200D02*
X308400D01*
X314900D02*
X316400D01*
X317600D02*
X320300D01*
X321600Y162500D02*
X323000D01*
X307000Y161500D02*
X309000D01*
X314300D02*
X316300D01*
X317600D02*
X320300D01*
X321600D02*
X323000D01*
X327000D02*
X329800D01*
X331100D02*
X336500D01*
X342000D02*
X344000D01*
X349300D02*
X351300D01*
X307400Y160700D02*
X316000D01*
X317600D02*
X319000D01*
X320300D02*
X321700D01*
X323000D02*
X324400D01*
X325700D02*
X327100D01*
X328400D02*
X329800D01*
X331100D02*
X332500D01*
X333800D02*
X335200D01*
X336500D02*
X337900D01*
X339200D02*
X340600D01*
X307300Y160800D02*
X316000D01*
X317600D02*
X319000D01*
X320300D02*
X321700D01*
X342400Y160700D02*
X351000D01*
X323000Y160800D02*
X324400D01*
X325700D02*
X327100D01*
X328400D02*
X329800D01*
X331100D02*
X332500D01*
X333800D02*
X335200D01*
X336500D02*
X337900D01*
X339200D02*
X340600D01*
X342300D02*
X351000D01*
X307200Y160900D02*
X316100D01*
X317600D02*
X319000D01*
X320300D02*
X321700D01*
X323000D02*
X324400D01*
X325700D02*
X327100D01*
X328400D02*
X329800D01*
X331100D02*
X332500D01*
X333800D02*
X335200D01*
X336500D02*
X337900D01*
X339200D02*
X340600D01*
X307200Y161000D02*
X316100D01*
X317600D02*
X319000D01*
X320300D02*
X321700D01*
X342200Y160900D02*
X351100D01*
X323000Y161000D02*
X324400D01*
X325700D02*
X327100D01*
X328400D02*
X329800D01*
X331100D02*
X332500D01*
X307100Y161100D02*
X316200D01*
X317600D02*
X319000D01*
X320300D02*
X321700D01*
X323000D02*
X324400D01*
X325700D02*
X327100D01*
X328400D02*
X329800D01*
X331100D02*
X332500D01*
X333800D02*
X335200D01*
X336500D02*
X337900D01*
X339200D02*
X340600D01*
X307100Y161200D02*
X316200D01*
X317600D02*
X324400D01*
X342100Y161100D02*
X351200D01*
X325700Y161200D02*
X329800D01*
X331100D02*
X337900D01*
X339200D02*
X340600D01*
X342100D02*
X351200D01*
X327000Y161300D02*
X329800D01*
X331100D02*
X336500D01*
X342100D02*
X344700D01*
X348700D02*
X351200D01*
X327000Y161400D02*
X329800D01*
X331100D02*
X336500D01*
X342000D02*
X344200D01*
X349100D02*
X351300D01*
X333800Y161000D02*
X335200D01*
X336500D02*
X337900D01*
X339200D02*
X340600D01*
X342200D02*
X351100D01*
X317600Y163000D02*
X319000D01*
X320300D02*
X321700D01*
X323000D02*
X327100D01*
X328400D02*
X329800D01*
X335100D02*
X336500D01*
X341900D02*
X343300D01*
X344700D02*
X348600D01*
X350000D02*
X351400D01*
X306900Y163100D02*
X308300D01*
X309700D02*
X313600D01*
X315000D02*
X316400D01*
X317600D02*
X319000D01*
X320300D02*
X321700D01*
X323000D02*
X327100D01*
X328400D02*
X329800D01*
X335100D02*
X336500D01*
X341900D02*
X343300D01*
X344700D02*
X348600D01*
X306900Y163200D02*
X308300D01*
X309700D02*
X313600D01*
X315000D02*
X316400D01*
X350000Y163100D02*
X351400D01*
X317600Y163200D02*
X319000D01*
X320300D02*
X321700D01*
X323000D02*
X327100D01*
X328400D02*
X329800D01*
X335100D02*
X336500D01*
X341900D02*
X343300D01*
X344700D02*
X348600D01*
X350000D02*
X351400D01*
X306900Y163300D02*
X308300D01*
X309600D02*
X313700D01*
X315000D02*
X316400D01*
X317600D02*
X319000D01*
X320300D02*
X321700D01*
X323000D02*
X327100D01*
X328400D02*
X329800D01*
X335100D02*
X336500D01*
X341900D02*
X343300D01*
X344600D02*
X348700D01*
X306900Y163400D02*
X308300D01*
X309600D02*
X313700D01*
X315000D02*
X316400D01*
X350000Y163300D02*
X351400D01*
X317600Y163400D02*
X319000D01*
X320300D02*
X321700D01*
X323000D02*
X327100D01*
X328400D02*
X329800D01*
X335100D02*
X336500D01*
X341900D02*
X343300D01*
X344600D02*
X348700D01*
X350000D02*
X351400D01*
X306900Y163500D02*
X308300D01*
X309600D02*
X313700D01*
X315000D02*
X316400D01*
X317600D02*
X319000D01*
X320300D02*
X321700D01*
X323000D02*
X327100D01*
X328400D02*
X329800D01*
X335100D02*
X336500D01*
X341900D02*
X343300D01*
X344600D02*
X348700D01*
X306900Y163600D02*
X308300D01*
X309600D02*
X313700D01*
X315000D02*
X316400D01*
X350000Y163500D02*
X351400D01*
X317600Y163600D02*
X319000D01*
X320300D02*
X321700D01*
X323000D02*
X327100D01*
X328400D02*
X329800D01*
X335100D02*
X336500D01*
X341900D02*
X343300D01*
X344600D02*
X348700D01*
X350000D02*
X351400D01*
X306900Y163700D02*
X308300D01*
X309600D02*
X313700D01*
X315000D02*
X316400D01*
X317600D02*
X319000D01*
X320300D02*
X321700D01*
X323000D02*
X327100D01*
X328400D02*
X329800D01*
X335100D02*
X336500D01*
X341900D02*
X343300D01*
X344600D02*
X348700D01*
X306900Y163800D02*
X308300D01*
X309600D02*
X313700D01*
X315000D02*
X316400D01*
X350000Y163700D02*
X351400D01*
X306900Y162800D02*
X308300D01*
X309900D02*
X313400D01*
X315000D02*
X316400D01*
X335100D02*
X336500D01*
X341900D02*
X343300D01*
X344900D02*
X348400D01*
X350000D02*
X351400D01*
X306900Y162100D02*
X308500D01*
X314800D02*
X316400D01*
X317600D02*
X320300D01*
X321600Y162400D02*
X323000D01*
X327000Y162100D02*
X329800D01*
X331100D02*
X336500D01*
X341900D02*
X343500D01*
X349800D02*
X351400D01*
X327000Y162200D02*
X329800D01*
X331100D02*
X336500D01*
X341900D02*
X343400D01*
X349900D02*
X351400D01*
X327000Y162300D02*
X329800D01*
X331100D02*
X336500D01*
X341900D02*
X343400D01*
X349900D02*
X351400D01*
X327000Y162400D02*
X329800D01*
X331100D02*
X336500D01*
X341900D02*
X343400D01*
X349900D02*
X351400D01*
X327000Y162500D02*
X329800D01*
X331100D02*
X336500D01*
X341900D02*
X343400D01*
X349900D02*
X351400D01*
X306900Y162600D02*
X308400D01*
X310300D02*
X313000D01*
X315000D02*
X316400D01*
X317600D02*
X319000D01*
X320300D02*
X321700D01*
X323000D02*
X327100D01*
X328400D02*
X329800D01*
X335100D02*
X336500D01*
X341900D02*
X343400D01*
X345300D02*
X348000D01*
X306900Y162700D02*
X308300D01*
X310000D02*
X313300D01*
X315000D02*
X316400D01*
X350000Y162600D02*
X351400D01*
X317600Y162700D02*
X319000D01*
X320300D02*
X321700D01*
X323000D02*
X327100D01*
X328400D02*
X329800D01*
X317600Y162800D02*
X319000D01*
X320300D02*
X321700D01*
X323000D02*
X327100D01*
X328400D02*
X329800D01*
X306900Y162900D02*
X308300D01*
X309800D02*
X313500D01*
X315000D02*
X316400D01*
X317600D02*
X319000D01*
X320300D02*
X321700D01*
X323000D02*
X327100D01*
X328400D02*
X329800D01*
X335100D02*
X336500D01*
X341900D02*
X343300D01*
X344800D02*
X348500D01*
X306900Y163000D02*
X308300D01*
X309700D02*
X313600D01*
X315000D02*
X316400D01*
X350000Y162900D02*
X351400D01*
X335100Y162700D02*
X336500D01*
X341900D02*
X343300D01*
X345000D02*
X348300D01*
X350000D02*
X351400D01*
X317600Y163800D02*
X319000D01*
X320300D02*
X321700D01*
X323000D02*
X327100D01*
X328400D02*
X329800D01*
X335100D02*
X336500D01*
X341900D02*
X343300D01*
X344600D02*
X348700D01*
X350000D02*
X351400D01*
X306900Y163900D02*
X308300D01*
X309600D02*
X313700D01*
X315000D02*
X316400D01*
X317600D02*
X319000D01*
X320300D02*
X321700D01*
X323000D02*
X327100D01*
X328400D02*
X336500D01*
X337800D02*
X340600D01*
X341900D02*
X343300D01*
X344600D02*
X348700D01*
X306900Y164000D02*
X308300D01*
X309600D02*
X313700D01*
X315000D02*
X316400D01*
X350000Y163900D02*
X351400D01*
X317600Y164000D02*
X319000D01*
X320300D02*
X321700D01*
X324300D02*
X327100D01*
X328400D02*
X336500D01*
X337800D02*
X340600D01*
X341900D02*
X343300D01*
X344600D02*
X348700D01*
X350000D02*
X351400D01*
X306900Y164100D02*
X308300D01*
X309600D02*
X313700D01*
X315000D02*
X316400D01*
X317600D02*
X319000D01*
X320300D02*
X321700D01*
X324300D02*
X327100D01*
X328400D02*
X336500D01*
X337800D02*
X340600D01*
X341900D02*
X343300D01*
X344600D02*
X348700D01*
X306900Y164200D02*
X308300D01*
X309600D02*
X313700D01*
X315000D02*
X316400D01*
X350000Y164100D02*
X351400D01*
X317600Y164200D02*
X319000D01*
X320300D02*
X321700D01*
X324300D02*
X327100D01*
X328400D02*
X336500D01*
X337800D02*
X340600D01*
X341900D02*
X343300D01*
X344600D02*
X348700D01*
X350000D02*
X351400D01*
X306900Y164300D02*
X308300D01*
X309600D02*
X313700D01*
X315000D02*
X316400D01*
X317600D02*
X319000D01*
X320300D02*
X321700D01*
X324300D02*
X327100D01*
X328400D02*
X336500D01*
X337800D02*
X340600D01*
X341900D02*
X343300D01*
X344600D02*
X348700D01*
X306900Y164400D02*
X308300D01*
X309600D02*
X313700D01*
X315000D02*
X316400D01*
X350000Y164300D02*
X351400D01*
X317600Y164400D02*
X319000D01*
X320300D02*
X321700D01*
X324300D02*
X327100D01*
X328400D02*
X336500D01*
X306900Y164500D02*
X308300D01*
X309600D02*
X313700D01*
X315000D02*
X316400D01*
X317600D02*
X319000D01*
X320300D02*
X321700D01*
X324300D02*
X327100D01*
X328400D02*
X336500D01*
X337800D02*
X340600D01*
X341900D02*
X343300D01*
X344600D02*
X348700D01*
X306900Y164600D02*
X308300D01*
X309600D02*
X313700D01*
X315000D02*
X316400D01*
X350000Y164500D02*
X351400D01*
X317600Y164600D02*
X319000D01*
X320300D02*
X321700D01*
X324300D02*
X327100D01*
X328400D02*
X336500D01*
X337800Y164400D02*
X340600D01*
X341900D02*
X343300D01*
X344600D02*
X348700D01*
X350000D02*
X351400D01*
X337800Y164600D02*
X340600D01*
X341900D02*
X343300D01*
X344600D02*
X348700D01*
X350000D02*
X351400D01*
X306900Y164700D02*
X308300D01*
X309600D02*
X313700D01*
X315000D02*
X316400D01*
X317600D02*
X319000D01*
X320300D02*
X321700D01*
X324300D02*
X327100D01*
X328400D02*
X336500D01*
X337800D02*
X340600D01*
X341900D02*
X343300D01*
X344600D02*
X348700D01*
X306900Y164800D02*
X308300D01*
X309600D02*
X313700D01*
X315000D02*
X316400D01*
X350000Y164700D02*
X351400D01*
X317600Y164800D02*
X319000D01*
X320300D02*
X321700D01*
X324300D02*
X327100D01*
X328400D02*
X336500D01*
X337800D02*
X340600D01*
X341900D02*
X343300D01*
X344600D02*
X348700D01*
X350000D02*
X351400D01*
X306900Y164900D02*
X308300D01*
X309600D02*
X313700D01*
X315000D02*
X316400D01*
X317600D02*
X319000D01*
X320300D02*
X321700D01*
X324300D02*
X327100D01*
X328400D02*
X336500D01*
X337800D02*
X340600D01*
X341900D02*
X343300D01*
X344600D02*
X348700D01*
X306900Y165000D02*
X308300D01*
X309600D02*
X313700D01*
X315000D02*
X316400D01*
X350000Y164900D02*
X351400D01*
X317600Y165000D02*
X319000D01*
X320300D02*
X321700D01*
X324300D02*
X327100D01*
X328400D02*
X336500D01*
X337800D02*
X340600D01*
X341900D02*
X343300D01*
X344600D02*
X348700D01*
X350000D02*
X351400D01*
X306900Y165100D02*
X308300D01*
X309600D02*
X313700D01*
X315000D02*
X316400D01*
X317600D02*
X319000D01*
X320300D02*
X321700D01*
X324300D02*
X327100D01*
X328400D02*
X336500D01*
X337800D02*
X340600D01*
X341900D02*
X343300D01*
X344600D02*
X348700D01*
X306900Y165200D02*
X308300D01*
X309600D02*
X313700D01*
X315000D02*
X316400D01*
X350000Y165100D02*
X351400D01*
X317600Y165200D02*
X319000D01*
X320300D02*
X321700D01*
X324300D02*
X327100D01*
X328400D02*
X336500D01*
X306900Y165300D02*
X308300D01*
X309600D02*
X313700D01*
X315000D02*
X316400D01*
X317600D02*
X321700D01*
X325700D02*
X327100D01*
X328400D02*
X329800D01*
X333800D02*
X336500D01*
X341900D02*
X343300D01*
X344600D02*
X348700D01*
X306900Y165400D02*
X308300D01*
X309600D02*
X313700D01*
X350000Y165300D02*
X351400D01*
X315000Y165400D02*
X316400D01*
X317600D02*
X321700D01*
X325700D02*
X327100D01*
X328400D02*
X329800D01*
X333800D02*
X336500D01*
X341900D02*
X343300D01*
X344600D02*
X348700D01*
X350000D02*
X351400D01*
X337800Y165200D02*
X340600D01*
X341900D02*
X343300D01*
X344600D02*
X348700D01*
X350000D02*
X351400D01*
X306900Y165500D02*
X308300D01*
X309600D02*
X313700D01*
X315000D02*
X316400D01*
X317600D02*
X321700D01*
X325700D02*
X327100D01*
X328400D02*
X329800D01*
X333800D02*
X336500D01*
X341900D02*
X343300D01*
X344600D02*
X348700D01*
X306900Y165600D02*
X308300D01*
X309600D02*
X313700D01*
X350000Y165500D02*
X351400D01*
X315000Y165600D02*
X316400D01*
X317600D02*
X321700D01*
X325700D02*
X327100D01*
X328400D02*
X329800D01*
X333800D02*
X336500D01*
X341900D02*
X343300D01*
X344600D02*
X348700D01*
X350000D02*
X351400D01*
X306900Y165700D02*
X308300D01*
X309600D02*
X313700D01*
X315000D02*
X316400D01*
X317600D02*
X321700D01*
X325700D02*
X327100D01*
X328400D02*
X329800D01*
X333800D02*
X336500D01*
X341900D02*
X343300D01*
X344600D02*
X348700D01*
X306900Y165800D02*
X308300D01*
X309600D02*
X313700D01*
X350000Y165700D02*
X351400D01*
X315000Y165800D02*
X316400D01*
X317600D02*
X321700D01*
X325700D02*
X327100D01*
X328400D02*
X329800D01*
X333800D02*
X336500D01*
X341900D02*
X343300D01*
X344600D02*
X348700D01*
X350000D02*
X351400D01*
X306900Y165900D02*
X308300D01*
X309600D02*
X313700D01*
X315000D02*
X316400D01*
X317600D02*
X321700D01*
X325700D02*
X327100D01*
X328400D02*
X329800D01*
X333800D02*
X336500D01*
X341900D02*
X343300D01*
X344600D02*
X348700D01*
X306900Y166000D02*
X308300D01*
X309700D02*
X313700D01*
X350000Y165900D02*
X351400D01*
X315000Y166000D02*
X316400D01*
X317600D02*
X321700D01*
X325700D02*
X327100D01*
X328400D02*
X329800D01*
X333800D02*
X336500D01*
X341900D02*
X343300D01*
X344700D02*
X348700D01*
X350000D02*
X351400D01*
X306900Y166100D02*
X308300D01*
X309700D02*
X313600D01*
X315000D02*
X316400D01*
X317600D02*
X321700D01*
X325700D02*
X327100D01*
X328400D02*
X329800D01*
X333800D02*
X336500D01*
X341900D02*
X343300D01*
X344700D02*
X348600D01*
X306900Y166200D02*
X308300D01*
X309700D02*
X313600D01*
X350000Y166100D02*
X351400D01*
X315000Y166200D02*
X316400D01*
X317600D02*
X321700D01*
X325700D02*
X327100D01*
X328400D02*
X329800D01*
X306900Y166300D02*
X308300D01*
X309800D02*
X313500D01*
X315000D02*
X316400D01*
X317600D02*
X321700D01*
X325700D02*
X327100D01*
X328400D02*
X329800D01*
X333800D02*
X336500D01*
X341900D02*
X343300D01*
X344800D02*
X348500D01*
X306900Y166400D02*
X308300D01*
X309900D02*
X313400D01*
X350000Y166300D02*
X351400D01*
X333800Y166200D02*
X336500D01*
X341900D02*
X343300D01*
X344700D02*
X348600D01*
X350000D02*
X351400D01*
X315000Y166400D02*
X316400D01*
X317600D02*
X321700D01*
X325700D02*
X327100D01*
X328400D02*
X329800D01*
X333800D02*
X336500D01*
X341900D02*
X343300D01*
X344900D02*
X348400D01*
X310000Y166500D02*
X313300D01*
X327000Y168800D02*
X328400D01*
X350000Y166400D02*
X351400D01*
X306900Y166600D02*
X308300D01*
X310300D02*
X313100D01*
X315000D02*
X316400D01*
X317600D02*
X321700D01*
X325700D02*
X327100D01*
X328400D02*
X331100D01*
X332400D02*
X336500D01*
X341900D02*
X343300D01*
X345300D02*
X348100D01*
X306900Y166700D02*
X308400D01*
X350000Y166600D02*
X351400D01*
X314900Y166700D02*
X316400D01*
X318900D02*
X321700D01*
X325700D02*
X327100D01*
X328400D02*
X331100D01*
X332400D02*
X333800D01*
X335100D02*
X336500D01*
X341900D02*
X343400D01*
X349900D02*
X351400D01*
X306900Y166800D02*
X308400D01*
X314900D02*
X316400D01*
X318900D02*
X321700D01*
X325700D02*
X327100D01*
X328400D02*
X331100D01*
X332400D02*
X333800D01*
X335100D02*
X336500D01*
X341900D02*
X343400D01*
X306900Y166900D02*
X308400D01*
X314900D02*
X316400D01*
X318900D02*
X321700D01*
X349900Y166800D02*
X351400D01*
X325700Y166900D02*
X327100D01*
X328400D02*
X331100D01*
X332400D02*
X333800D01*
X335100D02*
X336500D01*
X341900D02*
X343400D01*
X325700Y167100D02*
X327100D01*
X349900Y166900D02*
X351400D01*
X314900Y167000D02*
X316400D01*
X318900D02*
X321700D01*
X325700D02*
X327100D01*
X328400D02*
X331100D01*
X332400D02*
X333800D01*
X335100D02*
X336500D01*
X341900D02*
X343400D01*
X349900D02*
X351400D01*
X306900Y167100D02*
X308500D01*
X314800D02*
X316400D01*
X318900D02*
X321700D01*
X328400Y167400D02*
X331100D01*
X328400Y167100D02*
X331100D01*
X332400D02*
X333800D01*
X335100D02*
X336500D01*
X341900D02*
X343500D01*
X328400Y167200D02*
X331100D01*
X349800Y167100D02*
X351400D01*
X332400Y167400D02*
X333800D01*
X335100D02*
X336500D01*
X342000D02*
X343700D01*
X349700D02*
X351300D01*
X332400Y167200D02*
X333800D01*
X335100D02*
X336500D01*
X341900D02*
X343500D01*
X349800D02*
X351400D01*
X333800Y166500D02*
X336500D01*
X341900D02*
X343300D01*
X345000D02*
X348300D01*
X350000D02*
X351400D01*
X314800Y167200D02*
X316400D01*
X318900D02*
X321700D01*
X325700D02*
X327100D01*
X329700Y169200D02*
X335200D01*
X307000Y167300D02*
X308600D01*
X314700D02*
X316400D01*
X318900D02*
X321700D01*
X325700D02*
X327100D01*
X328400D02*
X331100D01*
X332400D02*
X333800D01*
X335100D02*
X336500D01*
X342000D02*
X343600D01*
X307000Y167400D02*
X308700D01*
X349700Y167300D02*
X351400D01*
X314700Y167400D02*
X316300D01*
X318900D02*
X321700D01*
X325700D02*
X327100D01*
X329700Y169300D02*
X335200D01*
X314600Y167500D02*
X316300D01*
X318900D02*
X321700D01*
X325700D02*
X327100D01*
X337800Y168200D02*
X340600D01*
X328400Y167500D02*
X331100D01*
X332400D02*
X333800D01*
X335100D02*
X336500D01*
X342000D02*
X343700D01*
X328400Y167600D02*
X331100D01*
X349600Y167500D02*
X351300D01*
X314500Y167600D02*
X316300D01*
X318900D02*
X321700D01*
X325700D02*
X327100D01*
X337800Y168500D02*
X340600D01*
X332400Y167600D02*
X333800D01*
X335100D02*
X336500D01*
X342000D02*
X343900D01*
X349500D02*
X351300D01*
X314300Y167700D02*
X316300D01*
X318900D02*
X321700D01*
X325700D02*
X327100D01*
X337800Y169200D02*
X340600D01*
X328400Y167700D02*
X331100D01*
X332400D02*
X333800D01*
X335100D02*
X336500D01*
X342000D02*
X344000D01*
X328400Y167800D02*
X331100D01*
X349300Y167700D02*
X351300D01*
X314100Y167800D02*
X316300D01*
X318900D02*
X321700D01*
X325700D02*
X327100D01*
X337800Y169300D02*
X340600D01*
X307100Y167900D02*
X309600D01*
X313700D02*
X316200D01*
X318900D02*
X321700D01*
X325700D02*
X327100D01*
X328400D02*
X331100D01*
X332400D02*
X333800D01*
X335100D02*
X336500D01*
X342100D02*
X344600D01*
X307100Y168000D02*
X316200D01*
X317600D02*
X323000D01*
X327000D02*
X328400D01*
X348700Y167900D02*
X351200D01*
X332400Y167800D02*
X333800D01*
X335100D02*
X336500D01*
X342000D02*
X344200D01*
X349100D02*
X351300D01*
X329700Y168000D02*
X335200D01*
X337800D02*
X340600D01*
X342100D02*
X351200D01*
X342200Y168200D02*
X351100D01*
X317600Y168100D02*
X323000D01*
X327000D02*
X328400D01*
X329700D02*
X335200D01*
X337800D02*
X340600D01*
X342100D02*
X351200D01*
X307200Y168200D02*
X316100D01*
X317600D02*
X323000D01*
X327000D02*
X328400D01*
X329700D02*
X335200D01*
X317600Y169300D02*
X323000D01*
X307200Y168300D02*
X316100D01*
X317600D02*
X323000D01*
X327000D02*
X328400D01*
X307300Y168400D02*
X316000D01*
X317600D02*
X323000D01*
X327000D02*
X328400D01*
X329700D02*
X335200D01*
X337800D02*
X340600D01*
X342300D02*
X351000D01*
X307400Y168500D02*
X316000D01*
X317600D02*
X323000D01*
X327000D02*
X328400D01*
X329700D02*
X335200D01*
X307500Y168700D02*
X315800D01*
X329700Y168300D02*
X335200D01*
X337800D02*
X340600D01*
X342200D02*
X351100D01*
X342400Y168500D02*
X351000D01*
X317600Y168700D02*
X323000D01*
X327000D02*
X328400D01*
X329700D02*
X335200D01*
X337800D02*
X340600D01*
X342500D02*
X350800D01*
X307600Y168800D02*
X315700D01*
X317600D02*
X323000D01*
X308100Y169100D02*
X315200D01*
X329700Y168600D02*
X335200D01*
X337800D02*
X340600D01*
X342400D02*
X350900D01*
X343100Y169100D02*
X350200D01*
X317600Y168900D02*
X323000D01*
X327000D02*
X328400D01*
X329700D02*
X335200D01*
X337800D02*
X340600D01*
X342700D02*
X350600D01*
X307900Y169000D02*
X315400D01*
X317600D02*
X323000D01*
X308400Y169200D02*
X314900D01*
X329700Y168800D02*
X335200D01*
X337800D02*
X340600D01*
X342600D02*
X350700D01*
X343400Y169200D02*
X349900D01*
X317600Y169100D02*
X323000D01*
X327000D02*
X328400D01*
X329700D02*
X335200D01*
X337800D02*
X340600D01*
X308900Y169300D02*
X314400D01*
X329700Y169000D02*
X335200D01*
X337800D02*
X340600D01*
X342900D02*
X350400D01*
X343900Y169300D02*
X349400D01*
X307400Y168600D02*
X315900D01*
X317600D02*
X323000D01*
X327000D02*
X328400D01*
X307700Y168900D02*
X315600D01*
M02*
