G04*
G04 #@! TF.GenerationSoftware,Altium Limited,Altium Designer,21.9.2 (33)*
G04*
G04 Layer_Color=255*
%FSLAX25Y25*%
%MOIN*%
G70*
G04*
G04 #@! TF.SameCoordinates,BDAA0F83-93E9-4538-AAC0-020DCC9D6774*
G04*
G04*
G04 #@! TF.FilePolarity,Positive*
G04*
G01*
G75*
%ADD16R,0.15748X0.07874*%
%ADD26R,0.05906X0.05906*%
%ADD27C,0.05906*%
%ADD28O,0.07000X0.06000*%
%ADD29R,0.07000X0.06000*%
D16*
X220700Y145830D02*
D03*
X220700Y124570D02*
D03*
Y263030D02*
D03*
X220700Y241770D02*
D03*
D26*
X381000Y259000D02*
D03*
X351500Y273000D02*
D03*
D27*
X391000Y259000D02*
D03*
X381000Y249000D02*
D03*
X391000D02*
D03*
X381000Y239000D02*
D03*
X391000Y239000D02*
D03*
X381000Y229000D02*
D03*
X391000D02*
D03*
X381000Y219000D02*
D03*
X391000D02*
D03*
X381000Y209000D02*
D03*
X391000D02*
D03*
X381000Y199000D02*
D03*
X391000Y199000D02*
D03*
X381000Y189000D02*
D03*
X391000D02*
D03*
X381000Y179000D02*
D03*
X391000D02*
D03*
X381000Y169000D02*
D03*
X391000D02*
D03*
X361500Y273000D02*
D03*
X351500Y263000D02*
D03*
X361500D02*
D03*
D28*
X219500Y200900D02*
D03*
Y190900D02*
D03*
X231950Y200900D02*
D03*
Y190900D02*
D03*
X244400Y200900D02*
D03*
Y190900D02*
D03*
D29*
X219500Y180900D02*
D03*
X231950D02*
D03*
X244400D02*
D03*
M02*
