G04*
G04 #@! TF.GenerationSoftware,Altium Limited,Altium Designer,21.9.2 (33)*
G04*
G04 Layer_Color=128*
%FSLAX25Y25*%
%MOIN*%
G70*
G04*
G04 #@! TF.SameCoordinates,BDAA0F83-93E9-4538-AAC0-020DCC9D6774*
G04*
G04*
G04 #@! TF.FilePolarity,Positive*
G04*
G01*
G75*
%ADD33C,0.00200*%
D33*
X379228Y259000D02*
X382772D01*
X381000Y257228D02*
Y260772D01*
X389228Y259000D02*
X392772D01*
X391000Y257228D02*
Y260772D01*
X379228Y249000D02*
X382772D01*
X381000Y247228D02*
Y250772D01*
X389228Y249000D02*
X392772D01*
X391000Y247228D02*
Y250772D01*
X379228Y239000D02*
X382772D01*
X381000Y237228D02*
Y240772D01*
X389228Y239000D02*
X392772D01*
X391000Y237228D02*
Y240772D01*
X379228Y229000D02*
X382772D01*
X381000Y227228D02*
Y230772D01*
X389228Y229000D02*
X392772D01*
X391000Y227228D02*
Y230772D01*
X379228Y219000D02*
X382772D01*
X381000Y217228D02*
Y220772D01*
X389228Y219000D02*
X392772D01*
X391000Y217228D02*
Y220772D01*
X379228Y209000D02*
X382772D01*
X381000Y207228D02*
Y210772D01*
X389228Y209000D02*
X392772D01*
X391000Y207228D02*
Y210772D01*
X379228Y199000D02*
X382772D01*
X381000Y197228D02*
Y200772D01*
X389228Y199000D02*
X392772D01*
X391000Y197228D02*
Y200772D01*
X379228Y189000D02*
X382772D01*
X381000Y187228D02*
Y190772D01*
X389228Y189000D02*
X392772D01*
X391000Y187228D02*
Y190772D01*
X379228Y179000D02*
X382772D01*
X381000Y177228D02*
Y180772D01*
X389228Y179000D02*
X392772D01*
X391000Y177228D02*
Y180772D01*
X379228Y169000D02*
X382772D01*
X381000Y167228D02*
Y170772D01*
X389228Y169000D02*
X392772D01*
X391000Y167228D02*
Y170772D01*
X217900Y200900D02*
X221100D01*
X219500Y199300D02*
Y202500D01*
X217900Y190900D02*
X221100D01*
X219500Y189300D02*
Y192500D01*
X217900Y180900D02*
X221100D01*
X219500Y179300D02*
Y182500D01*
X230350Y200900D02*
X233550D01*
X231950Y199300D02*
Y202500D01*
X230350Y190900D02*
X233550D01*
X231950Y189300D02*
Y192500D01*
X230350Y180900D02*
X233550D01*
X231950Y179300D02*
Y182500D01*
X242800Y200900D02*
X246000D01*
X244400Y199300D02*
Y202500D01*
X242800Y190900D02*
X246000D01*
X244400Y189300D02*
Y192500D01*
X242800Y180900D02*
X246000D01*
X244400Y179300D02*
Y182500D01*
X349728Y273000D02*
X353272D01*
X351500Y271228D02*
Y274772D01*
X359728Y273000D02*
X363272D01*
X361500Y271228D02*
Y274772D01*
X349728Y263000D02*
X353272D01*
X351500Y261228D02*
Y264772D01*
X359728Y263000D02*
X363272D01*
X361500Y261228D02*
Y264772D01*
X303410Y273600D02*
X304591D01*
X304000Y273009D02*
Y274190D01*
X323009Y256300D02*
X324190D01*
X323600Y255710D02*
Y256891D01*
X302110Y142300D02*
X303291D01*
X302700Y141709D02*
Y142891D01*
X302110Y125000D02*
X303291D01*
X302700Y124409D02*
Y125591D01*
X321709Y142300D02*
X322890D01*
X322300Y141709D02*
Y142891D01*
X321709Y125000D02*
X322890D01*
X322300Y124409D02*
Y125591D01*
X355710Y142300D02*
X356891D01*
X356300Y141709D02*
Y142891D01*
X355710Y125000D02*
X356891D01*
X356300Y124409D02*
Y125591D01*
X375309Y142300D02*
X376490D01*
X375900Y141709D02*
Y142891D01*
X375309Y125000D02*
X376490D01*
X375900Y124409D02*
Y125591D01*
X249209Y141500D02*
X250391D01*
X249800Y140909D02*
Y142091D01*
X249209Y124200D02*
X250391D01*
X249800Y123609D02*
Y124791D01*
X268810Y141500D02*
X269990D01*
X269400Y140909D02*
Y142091D01*
X268810Y124200D02*
X269990D01*
X269400Y123609D02*
Y124791D01*
X269309Y254100D02*
X270491D01*
X269900Y253509D02*
Y254691D01*
X269309Y271400D02*
X270491D01*
X269900Y270810D02*
Y271990D01*
X249710Y254100D02*
X250890D01*
X250300Y253509D02*
Y254691D01*
X249710Y271400D02*
X250890D01*
X250300Y270810D02*
Y271990D01*
X267910Y223900D02*
X269091D01*
X268500Y223309D02*
Y224490D01*
X312610Y193900D02*
X313790D01*
X313200Y193309D02*
Y194491D01*
X322110Y187900D02*
X323290D01*
X322700Y187309D02*
Y188491D01*
X330710Y187400D02*
X331891D01*
X331300Y186809D02*
Y187991D01*
X356010Y162700D02*
X357190D01*
X356600Y162109D02*
Y163291D01*
X347110Y170800D02*
X348290D01*
X347700Y170209D02*
Y171391D01*
X339809Y170800D02*
X340990D01*
X340400Y170209D02*
Y171391D01*
X339610Y178100D02*
X340791D01*
X340200Y177509D02*
Y178691D01*
X331809Y179000D02*
X332991D01*
X332400Y178409D02*
Y179591D01*
X348110Y163600D02*
X349290D01*
X348700Y163009D02*
Y164191D01*
M02*
