G04*
G04 #@! TF.GenerationSoftware,Altium Limited,Altium Designer,21.9.2 (33)*
G04*
G04 Layer_Color=65535*
%FSLAX25Y25*%
%MOIN*%
G70*
G04*
G04 #@! TF.SameCoordinates,BDAA0F83-93E9-4538-AAC0-020DCC9D6774*
G04*
G04*
G04 #@! TF.FilePolarity,Positive*
G04*
G01*
G75*
%ADD10C,0.01000*%
%ADD11C,0.01575*%
%ADD12C,0.00787*%
%ADD13C,0.00600*%
D10*
X276797Y203831D02*
G03*
X276797Y203831I-671J0D01*
G01*
X214500Y185900D02*
X224500D01*
X214500Y175900D02*
X224500D01*
X214500Y205900D02*
X214500Y175900D01*
X214500Y205900D02*
X224500D01*
X224500Y175900D02*
X224500Y205900D01*
X226950Y185900D02*
X236950D01*
X226950Y175900D02*
X236950D01*
X226950D02*
Y205900D01*
X236950D01*
Y175900D02*
Y205900D01*
X239400Y185900D02*
X249400D01*
X239400Y175900D02*
X249400D01*
X239400Y205900D02*
X239400Y175900D01*
X239400Y205900D02*
X249400D01*
X249400Y175900D02*
X249400Y205900D01*
X211645Y150948D02*
X211645Y137956D01*
X211645Y150948D02*
X229361D01*
X211645Y119452D02*
X229361Y119452D01*
X211645Y119452D02*
X211645Y132444D01*
X211645Y268148D02*
X211645Y255156D01*
X211645Y268148D02*
X229361Y268148D01*
X211645Y236652D02*
X229361D01*
X211645D02*
X211645Y249644D01*
D11*
X271284Y206862D02*
G03*
X271284Y206852I-787J-5D01*
G01*
D12*
X376000Y164000D02*
X396000D01*
X376000Y256500D02*
Y264000D01*
X396000D01*
Y256500D02*
Y264000D01*
Y164000D02*
Y256500D01*
X376000Y164000D02*
Y256500D01*
X300418Y180516D02*
Y204916D01*
X274218Y180516D02*
X300418D01*
X274218D02*
Y206616D01*
X300418Y206616D01*
Y203616D02*
Y206616D01*
X346500Y258000D02*
Y278000D01*
Y258000D02*
X366500D01*
X346500Y278000D02*
X366500D01*
Y258000D02*
Y278000D01*
D13*
X377600Y133849D02*
X380599D01*
X382099D02*
X385098D01*
X386597Y131600D02*
X388846Y133849D01*
X386597Y136099D01*
X274500Y130950D02*
Y135448D01*
X275999Y133949D01*
X277499Y135448D01*
Y130950D01*
X278998Y135448D02*
X281998Y130950D01*
Y135448D02*
X278998Y130950D01*
X283497Y135448D02*
X286496D01*
X284997D01*
Y130950D01*
X290995D02*
X287996D01*
X290995Y133949D01*
Y134699D01*
X290245Y135448D01*
X288745D01*
X287996Y134699D01*
X292494D02*
X293244Y135448D01*
X294743D01*
X295493Y134699D01*
Y131700D01*
X294743Y130950D01*
X293244D01*
X292494Y131700D01*
Y134699D01*
X296993D02*
X297743Y135448D01*
X299242D01*
X299992Y134699D01*
Y133949D01*
X299242Y133199D01*
X299992Y132449D01*
Y131700D01*
X299242Y130950D01*
X297743D01*
X296993Y131700D01*
Y132449D01*
X297743Y133199D01*
X296993Y133949D01*
Y134699D01*
X297743Y133199D02*
X299242D01*
X301491Y134699D02*
X302241Y135448D01*
X303741D01*
X304490Y134699D01*
Y133949D01*
X303741Y133199D01*
X304490Y132449D01*
Y131700D01*
X303741Y130950D01*
X302241D01*
X301491Y131700D01*
Y132449D01*
X302241Y133199D01*
X301491Y133949D01*
Y134699D01*
X302241Y133199D02*
X303741D01*
X305990Y130200D02*
X308989D01*
X310488Y135448D02*
Y130950D01*
X312738D01*
X313487Y131700D01*
Y134699D01*
X312738Y135448D01*
X310488D01*
X317986D02*
X314987D01*
Y130950D01*
X317986D01*
X314987Y133199D02*
X316487D01*
X319485Y130950D02*
Y135448D01*
X320985Y133949D01*
X322484Y135448D01*
Y130950D01*
X326233Y135448D02*
X324734D01*
X323984Y134699D01*
Y131700D01*
X324734Y130950D01*
X326233D01*
X326983Y131700D01*
Y134699D01*
X326233Y135448D01*
X331000Y265198D02*
Y262199D01*
X332500Y260700D01*
X333999Y262199D01*
Y265198D01*
X335498D02*
Y260700D01*
X337748D01*
X338498Y261450D01*
Y264449D01*
X337748Y265198D01*
X335498D01*
X339997D02*
Y260700D01*
X342246D01*
X342996Y261450D01*
Y264449D01*
X342246Y265198D01*
X339997D01*
X335498Y274698D02*
Y271700D01*
X336998Y270200D01*
X338498Y271700D01*
Y274698D01*
X339997D02*
Y270200D01*
X342246D01*
X342996Y270950D01*
Y273949D01*
X342246Y274698D01*
X339997D01*
X379851Y266100D02*
X379101Y266850D01*
Y268349D01*
X379851Y269099D01*
X380601D01*
X381351Y268349D01*
Y267600D01*
Y268349D01*
X382101Y269099D01*
X382850D01*
X383600Y268349D01*
Y266850D01*
X382850Y266100D01*
X379101Y270599D02*
X382101D01*
X383600Y272098D01*
X382101Y273598D01*
X379101D01*
X379851Y275097D02*
X379101Y275847D01*
Y277346D01*
X379851Y278096D01*
X380601D01*
X381351Y277346D01*
Y276597D01*
Y277346D01*
X382101Y278096D01*
X382850D01*
X383600Y277346D01*
Y275847D01*
X382850Y275097D01*
X389451Y269099D02*
X388702Y268349D01*
Y266850D01*
X389451Y266100D01*
X392450D01*
X393200Y266850D01*
Y268349D01*
X392450Y269099D01*
X390951D01*
Y267600D01*
X393200Y270599D02*
X388702D01*
X393200Y273598D01*
X388702D01*
Y275097D02*
X393200D01*
Y277346D01*
X392450Y278096D01*
X389451D01*
X388702Y277346D01*
Y275097D01*
X242651Y212199D02*
X241901Y211449D01*
Y209950D01*
X242651Y209200D01*
X243401D01*
X244151Y209950D01*
Y211449D01*
X244900Y212199D01*
X245650D01*
X246400Y211449D01*
Y209950D01*
X245650Y209200D01*
X246400Y213699D02*
Y215198D01*
Y214448D01*
X241901D01*
X242651Y213699D01*
X230451Y212199D02*
X229701Y211449D01*
Y209950D01*
X230451Y209200D01*
X231201D01*
X231951Y209950D01*
Y211449D01*
X232700Y212199D01*
X233450D01*
X234200Y211449D01*
Y209950D01*
X233450Y209200D01*
X234200Y216698D02*
Y213699D01*
X231201Y216698D01*
X230451D01*
X229701Y215948D01*
Y214448D01*
X230451Y213699D01*
X217201Y209200D02*
X221700D01*
Y211449D01*
X220950Y212199D01*
X217951D01*
X217201Y211449D01*
Y209200D01*
Y216698D02*
Y213699D01*
X219451D01*
Y215198D01*
Y213699D01*
X221700D01*
X217951Y221196D02*
X217201Y220446D01*
Y218947D01*
X217951Y218197D01*
X218701D01*
X219451Y218947D01*
Y220446D01*
X220200Y221196D01*
X220950D01*
X221700Y220446D01*
Y218947D01*
X220950Y218197D01*
X229299Y172449D02*
X228549Y173199D01*
X227050D01*
X226300Y172449D01*
Y169450D01*
X227050Y168700D01*
X228549D01*
X229299Y169450D01*
Y170949D01*
X227800D01*
X230799Y168700D02*
Y173199D01*
X233798Y168700D01*
Y173199D01*
X235297D02*
Y168700D01*
X237546D01*
X238296Y169450D01*
Y172449D01*
X237546Y173199D01*
X235297D01*
X252500Y203499D02*
Y200500D01*
X253999Y199000D01*
X255499Y200500D01*
Y203499D01*
X256998D02*
Y199000D01*
X259248D01*
X259998Y199750D01*
Y202749D01*
X259248Y203499D01*
X256998D01*
X263801Y216949D02*
Y213200D01*
X264551Y212451D01*
X266050D01*
X266800Y213200D01*
Y216949D01*
X268300Y212451D02*
X269799D01*
X269049D01*
Y216949D01*
X268300Y216199D01*
X361850Y255649D02*
X360351D01*
X361101D01*
Y251901D01*
X360351Y251151D01*
X359601D01*
X358851Y251901D01*
X366349Y255649D02*
X363350D01*
Y253400D01*
X364849Y254150D01*
X365599D01*
X366349Y253400D01*
Y251901D01*
X365599Y251151D01*
X364100D01*
X363350Y251901D01*
X216601Y161349D02*
X215102D01*
X215851D01*
Y157600D01*
X215102Y156851D01*
X214352D01*
X213602Y157600D01*
X218101Y156851D02*
Y161349D01*
X220350D01*
X221099Y160600D01*
Y159100D01*
X220350Y158350D01*
X218101D01*
X225598Y156851D02*
X222599D01*
X225598Y159850D01*
Y160600D01*
X224848Y161349D01*
X223349D01*
X222599Y160600D01*
X216601Y277549D02*
X215102D01*
X215851D01*
Y273800D01*
X215102Y273051D01*
X214352D01*
X213602Y273800D01*
X218101Y273051D02*
Y277549D01*
X220350D01*
X221099Y276800D01*
Y275300D01*
X220350Y274550D01*
X218101D01*
X222599Y273051D02*
X224099D01*
X223349D01*
Y277549D01*
X222599Y276800D01*
M02*
