M48
;Layer_Color=9474304
;FILE_FORMAT=2:5
INCH,LZ
;TYPE=PLATED
T1F00S00C0.01181
T2F00S00C0.03200
T3F00S00C0.03543
%
T01
X02498Y01242
Y01415
X02694
Y01242
X03027Y0125
Y01423
X03223
Y0125
X03563
Y01423
X03759
Y0125
X03566Y01627
X03487Y01636
X03477Y01708
X03404
X03402Y01781
X03324Y0179
X03313Y01874
X03227Y01879
X03132Y01939
X03236Y02563
X0304Y02736
X02699Y02714
Y02541
X02503
Y02714
X02685Y02239
T02
X02195Y01809
Y01909
Y02009
X023195
Y01909
Y01809
X02444
Y01909
Y02009
T03
X0381Y0169
Y0179
Y0189
Y0199
Y0209
Y0219
Y0229
X0391
Y0239
Y0249
Y0259
X0381
Y0249
Y0239
X0391Y0219
Y0209
Y0199
Y0189
Y0179
Y0169
X03615Y0263
Y0273
X03515
Y0263
M30
