G04*
G04 #@! TF.GenerationSoftware,Altium Limited,Altium Designer,21.9.2 (33)*
G04*
G04 Layer_Color=32768*
%FSLAX25Y25*%
%MOIN*%
G70*
G04*
G04 #@! TF.SameCoordinates,BDAA0F83-93E9-4538-AAC0-020DCC9D6774*
G04*
G04*
G04 #@! TF.FilePolarity,Positive*
G04*
G01*
G75*
%ADD33C,0.00200*%
G36*
X269788Y211330D02*
Y211135D01*
X269649Y210996D01*
X269454D01*
X269315Y211135D01*
Y211330D01*
X269454Y211469D01*
X269649D01*
X269788Y211330D01*
D02*
G37*
G36*
X298548Y208477D02*
Y207256D01*
X297642D01*
Y208477D01*
Y211232D01*
X298548D01*
Y208477D01*
D02*
G37*
G36*
X276894D02*
Y207256D01*
X275988D01*
Y208477D01*
Y211232D01*
X276894D01*
Y208477D01*
D02*
G37*
G36*
X296579D02*
Y207256D01*
X295673Y207256D01*
Y208477D01*
Y211232D01*
X296579D01*
Y208477D01*
D02*
G37*
G36*
X294611D02*
Y207256D01*
X293705Y207256D01*
Y208477D01*
Y211232D01*
X294611D01*
Y208477D01*
D02*
G37*
G36*
X292642D02*
Y207256D01*
X291736Y207256D01*
Y208477D01*
Y211232D01*
X292642D01*
Y208477D01*
D02*
G37*
G36*
X290674D02*
Y207256D01*
X289768Y207256D01*
Y208477D01*
Y211232D01*
X290674D01*
Y208477D01*
D02*
G37*
G36*
X288705D02*
Y207256D01*
X287799Y207256D01*
Y208477D01*
Y211232D01*
X288705D01*
Y208477D01*
D02*
G37*
G36*
X286737D02*
Y207256D01*
X285831Y207256D01*
Y208477D01*
Y211232D01*
X286737D01*
Y208477D01*
D02*
G37*
G36*
X284768D02*
Y207256D01*
X283862Y207256D01*
Y208477D01*
Y211232D01*
X284768D01*
Y208477D01*
D02*
G37*
G36*
X282800D02*
Y207256D01*
X281894Y207256D01*
Y208477D01*
Y211232D01*
X282800D01*
Y208477D01*
D02*
G37*
G36*
X280831D02*
Y207256D01*
X279925Y207256D01*
Y208477D01*
Y211232D01*
X280831D01*
Y208477D01*
D02*
G37*
G36*
X278863D02*
Y207256D01*
X277957Y207256D01*
Y208477D01*
Y211232D01*
X278863D01*
Y208477D01*
D02*
G37*
G36*
X304984Y203890D02*
X301008D01*
Y204796D01*
X304984D01*
Y203890D01*
D02*
G37*
G36*
X273528D02*
X269551D01*
Y204796D01*
X273528D01*
Y203890D01*
D02*
G37*
G36*
X304984Y201921D02*
X301008D01*
X301008Y202827D01*
X304984D01*
Y201921D01*
D02*
G37*
G36*
X273528D02*
X269551D01*
Y202827D01*
X273528D01*
X273528Y201921D01*
D02*
G37*
G36*
X304984Y199953D02*
X301008D01*
X301008Y200859D01*
X304984D01*
Y199953D01*
D02*
G37*
G36*
X273528D02*
X269551D01*
Y200859D01*
X273528D01*
X273528Y199953D01*
D02*
G37*
G36*
X304984Y197984D02*
X301008D01*
X301008Y198890D01*
X304984D01*
Y197984D01*
D02*
G37*
G36*
X273528D02*
X269551D01*
Y198890D01*
X273528D01*
X273528Y197984D01*
D02*
G37*
G36*
X304984Y196016D02*
X301008D01*
X301008Y196922D01*
X304984D01*
Y196016D01*
D02*
G37*
G36*
X273528D02*
X269551D01*
Y196922D01*
X273528D01*
X273528Y196016D01*
D02*
G37*
G36*
X304984Y194047D02*
X301008D01*
X301008Y194953D01*
X304984D01*
Y194047D01*
D02*
G37*
G36*
X273528D02*
X269551D01*
Y194953D01*
X273528D01*
X273528Y194047D01*
D02*
G37*
G36*
X304984Y192079D02*
X301008D01*
X301008Y192985D01*
X304984D01*
Y192079D01*
D02*
G37*
G36*
X273528D02*
X269551D01*
Y192985D01*
X273528D01*
X273528Y192079D01*
D02*
G37*
G36*
X304984Y190110D02*
X301008D01*
X301008Y191016D01*
X304984D01*
Y190110D01*
D02*
G37*
G36*
X273528D02*
X269551D01*
Y191016D01*
X273528D01*
X273528Y190110D01*
D02*
G37*
G36*
X304984Y188142D02*
X301008D01*
X301008Y189048D01*
X304984D01*
Y188142D01*
D02*
G37*
G36*
X273528D02*
X269551D01*
Y189048D01*
X273528D01*
X273528Y188142D01*
D02*
G37*
G36*
X304984Y186173D02*
X301008D01*
X301008Y187079D01*
X304984D01*
Y186173D01*
D02*
G37*
G36*
X273528D02*
X269551D01*
Y187079D01*
X273528D01*
X273528Y186173D01*
D02*
G37*
G36*
X304984Y184205D02*
X301008D01*
X301008Y185111D01*
X304984D01*
Y184205D01*
D02*
G37*
G36*
X273528D02*
X269551D01*
Y185111D01*
X273528D01*
X273528Y184205D01*
D02*
G37*
G36*
X304984Y182236D02*
X301008D01*
Y183142D01*
X304984D01*
Y182236D01*
D02*
G37*
G36*
X273528D02*
X269551D01*
Y183142D01*
X273528D01*
Y182236D01*
D02*
G37*
G36*
X298548Y178516D02*
Y175800D01*
X297642D01*
Y178516D01*
Y179776D01*
X298548D01*
Y178516D01*
D02*
G37*
G36*
X296579Y179776D02*
Y178516D01*
Y175800D01*
X295673D01*
Y178516D01*
Y179776D01*
X296579Y179776D01*
D02*
G37*
G36*
X294611Y178516D02*
Y175800D01*
X293705D01*
Y178516D01*
Y179776D01*
X294611Y179776D01*
Y178516D01*
D02*
G37*
G36*
X292642Y179776D02*
Y178516D01*
Y175800D01*
X291736D01*
Y178516D01*
Y179776D01*
X292642Y179776D01*
D02*
G37*
G36*
X290674Y178516D02*
Y175800D01*
X289768D01*
Y178516D01*
Y179776D01*
X290674Y179776D01*
Y178516D01*
D02*
G37*
G36*
X288705Y179776D02*
Y178516D01*
Y175800D01*
X287799D01*
Y178516D01*
Y179776D01*
X288705Y179776D01*
D02*
G37*
G36*
X286737Y178516D02*
Y175800D01*
X285831D01*
Y178516D01*
Y179776D01*
X286737Y179776D01*
Y178516D01*
D02*
G37*
G36*
X284768Y179776D02*
Y178516D01*
Y175800D01*
X283862D01*
Y178516D01*
Y179776D01*
X284768Y179776D01*
D02*
G37*
G36*
X282800Y178516D02*
Y175800D01*
X281894D01*
Y178516D01*
Y179776D01*
X282800Y179776D01*
Y178516D01*
D02*
G37*
G36*
X280831Y179776D02*
Y178516D01*
Y175800D01*
X279925D01*
Y178516D01*
Y179776D01*
X280831Y179776D01*
D02*
G37*
G36*
X278863Y178516D02*
Y175800D01*
X277957D01*
Y178516D01*
Y179776D01*
X278863Y179776D01*
Y178516D01*
D02*
G37*
G36*
X276894D02*
Y175800D01*
X275988D01*
Y178516D01*
Y179776D01*
X276894D01*
Y178516D01*
D02*
G37*
D33*
X301047Y179736D02*
Y207295D01*
X273488Y179736D02*
X301047D01*
X273488D02*
Y207295D01*
X301047D01*
M02*
