G04*
G04 #@! TF.GenerationSoftware,Altium Limited,Altium Designer,21.9.2 (33)*
G04*
G04 Layer_Color=2752767*
%FSLAX25Y25*%
%MOIN*%
G70*
G04*
G04 #@! TF.SameCoordinates,BDAA0F83-93E9-4538-AAC0-020DCC9D6774*
G04*
G04*
G04 #@! TF.FilePolarity,Positive*
G04*
G01*
G75*
%ADD33C,0.00200*%
%ADD34C,0.00267*%
D33*
X380200Y258200D02*
Y259800D01*
X381800D01*
Y258200D01*
X380200D01*
X390200D02*
Y259800D01*
X391800D01*
Y258200D01*
X390200D01*
X380200Y248200D02*
Y249800D01*
X381800D01*
Y248200D01*
X380200D01*
X390200D02*
Y249800D01*
X391800D01*
Y248200D01*
X390200D01*
X380200Y238200D02*
Y239800D01*
X381800D01*
Y238200D01*
X380200D01*
X390200Y238200D02*
Y239800D01*
X391800D01*
Y238200D01*
X390200D01*
X380200Y228200D02*
Y229800D01*
X381800D01*
Y228200D01*
X380200D01*
X390200D02*
Y229800D01*
X391800D01*
Y228200D01*
X390200D01*
X380200Y218200D02*
Y219800D01*
X381800D01*
Y218200D01*
X380200D01*
X390200D02*
Y219800D01*
X391800D01*
Y218200D01*
X390200D01*
X380200Y208200D02*
Y209800D01*
X381800D01*
Y208200D01*
X380200D01*
X390200D02*
Y209800D01*
X391800D01*
Y208200D01*
X390200D01*
X380200Y198200D02*
Y199800D01*
X381800D01*
Y198200D01*
X380200D01*
X390200Y198200D02*
Y199800D01*
X391800D01*
Y198200D01*
X390200D01*
X380200Y188200D02*
Y189800D01*
X381800D01*
Y188200D01*
X380200D01*
X390200D02*
Y189800D01*
X391800D01*
Y188200D01*
X390200D01*
X380200Y178200D02*
Y179800D01*
X381800D01*
Y178200D01*
X380200D01*
X390200D02*
Y179800D01*
X391800D01*
Y178200D01*
X390200D01*
X380200Y168200D02*
Y169800D01*
X381800D01*
Y168200D01*
X380200D01*
X390200D02*
Y169800D01*
X391800D01*
Y168200D01*
X390200D01*
X350700Y272200D02*
Y273800D01*
X352300D01*
Y272200D01*
X350700D01*
X360700D02*
Y273800D01*
X362300D01*
Y272200D01*
X360700D01*
X350700Y262200D02*
Y263800D01*
X352300D01*
Y262200D01*
X350700D01*
X360700D02*
Y263800D01*
X362300D01*
Y262200D01*
X360700D01*
X304000Y272800D02*
X303200Y274400D01*
X304800D01*
X304000Y272800D01*
X323600Y255500D02*
X322800Y257100D01*
X324400D01*
X323600Y255500D01*
X302700Y141500D02*
X301900Y143100D01*
X303500D01*
X302700Y141500D01*
Y124200D02*
X301900Y125800D01*
X303500D01*
X302700Y124200D01*
X322300Y141500D02*
X321500Y143100D01*
X323100D01*
X322300Y141500D01*
Y124200D02*
X321500Y125800D01*
X323100D01*
X322300Y124200D01*
X356300Y141500D02*
X355500Y143100D01*
X357100D01*
X356300Y141500D01*
Y124200D02*
X355500Y125800D01*
X357100D01*
X356300Y124200D01*
X375900Y141500D02*
X375100Y143100D01*
X376700D01*
X375900Y141500D01*
Y124200D02*
X375100Y125800D01*
X376700D01*
X375900Y124200D01*
X249800Y140700D02*
X249000Y142300D01*
X250600D01*
X249800Y140700D01*
Y123400D02*
X249000Y125000D01*
X250600D01*
X249800Y123400D01*
X269400Y140700D02*
X268600Y142300D01*
X270200D01*
X269400Y140700D01*
Y123400D02*
X268600Y125000D01*
X270200D01*
X269400Y123400D01*
X269900Y253300D02*
X269100Y254900D01*
X270700D01*
X269900Y253300D01*
Y270600D02*
X269100Y272200D01*
X270700D01*
X269900Y270600D01*
X250300Y253300D02*
X249500Y254900D01*
X251100D01*
X250300Y253300D01*
Y270600D02*
X249500Y272200D01*
X251100D01*
X250300Y270600D01*
X268500Y223100D02*
X267700Y224700D01*
X269300D01*
X268500Y223100D01*
X313200Y193100D02*
X312400Y194700D01*
X314000D01*
X313200Y193100D01*
X322700Y187100D02*
X321900Y188700D01*
X323500D01*
X322700Y187100D01*
X331300Y186600D02*
X330500Y188200D01*
X332100D01*
X331300Y186600D01*
X356600Y161900D02*
X355800Y163500D01*
X357400D01*
X356600Y161900D01*
X347700Y170000D02*
X346900Y171600D01*
X348500D01*
X347700Y170000D01*
X340400D02*
X339600Y171600D01*
X341200D01*
X340400Y170000D01*
X340200Y177300D02*
X339400Y178900D01*
X341000D01*
X340200Y177300D01*
X332400Y178200D02*
X331600Y179800D01*
X333200D01*
X332400Y178200D01*
X348700Y162800D02*
X347900Y164400D01*
X349500D01*
X348700Y162800D01*
D34*
X220300Y200900D02*
G03*
X220300Y200900I-800J0D01*
G01*
Y190900D02*
G03*
X220300Y190900I-800J0D01*
G01*
Y180900D02*
G03*
X220300Y180900I-800J0D01*
G01*
X232750Y200900D02*
G03*
X232750Y200900I-800J0D01*
G01*
Y190900D02*
G03*
X232750Y190900I-800J0D01*
G01*
Y180900D02*
G03*
X232750Y180900I-800J0D01*
G01*
X245200Y200900D02*
G03*
X245200Y200900I-800J0D01*
G01*
Y190900D02*
G03*
X245200Y190900I-800J0D01*
G01*
Y180900D02*
G03*
X245200Y180900I-800J0D01*
G01*
M02*
